<svg width="980" height="400" viewBox="0 0 980 400" fill="none" xmlns="http://www.w3.org/2000/svg">
<g clip-path="url(#clip0_337_2)">
<path d="M980 400C980 312.213 928.375 228.022 836.482 165.948C744.59 103.873 619.956 69 490 69C360.044 69 235.411 103.873 143.518 165.948C51.6249 228.022 1.96228e-05 312.213 0 400L490 400H980Z" fill="#101010"/>
<path d="M967 20C957.76 121.351 911.176 191.008 873.848 151.769M873.848 151.769C871.716 149.528 869.614 146.931 867.55 143.964C829.369 89.0658 853.343 -4.79286 894.189 39.4801C917.265 64.4929 904.347 106.181 873.848 151.769ZM873.848 151.769C850.364 186.874 816.456 224.291 780.532 258.189M775.204 243.136C775.204 250.515 773.783 266.512 768.101 271.47C760.997 277.669 790.299 262.616 798.291 268.814" stroke="#34DB69" stroke-width="5" stroke-linecap="round"/>
<path d="M184.769 280.24C183.553 280.24 182.425 280.024 181.385 279.592C180.361 279.144 179.465 278.528 178.697 277.744C177.929 276.944 177.337 276.024 176.921 274.984C176.505 273.928 176.297 272.8 176.297 271.6C176.297 270.4 176.505 269.28 176.921 268.24C177.337 267.184 177.929 266.264 178.697 265.48C179.465 264.696 180.361 264.08 181.385 263.632C182.425 263.184 183.553 262.96 184.769 262.96C186.129 262.96 187.305 263.184 188.297 263.632C189.289 264.08 190.169 264.688 190.937 265.456L189.065 267.328C188.569 266.784 187.961 266.36 187.241 266.056C186.537 265.752 185.713 265.6 184.769 265.6C183.937 265.6 183.177 265.744 182.489 266.032C181.801 266.32 181.201 266.736 180.689 267.28C180.193 267.808 179.809 268.44 179.537 269.176C179.265 269.912 179.129 270.72 179.129 271.6C179.129 272.48 179.265 273.288 179.537 274.024C179.809 274.76 180.193 275.4 180.689 275.944C181.201 276.472 181.801 276.88 182.489 277.168C183.177 277.456 183.937 277.6 184.769 277.6C185.793 277.6 186.657 277.448 187.361 277.144C188.081 276.824 188.689 276.392 189.185 275.848L191.057 277.72C190.289 278.504 189.385 279.12 188.345 279.568C187.305 280.016 186.113 280.24 184.769 280.24ZM201.055 280V273.352C201.055 272.584 200.807 271.952 200.311 271.456C199.831 270.96 199.207 270.712 198.439 270.712C197.927 270.712 197.471 270.824 197.071 271.048C196.671 271.272 196.359 271.584 196.135 271.984C195.911 272.384 195.799 272.84 195.799 273.352L194.767 272.776C194.767 271.896 194.959 271.12 195.343 270.448C195.727 269.76 196.255 269.224 196.927 268.84C197.615 268.44 198.383 268.24 199.231 268.24C200.095 268.24 200.863 268.432 201.535 268.816C202.207 269.2 202.735 269.736 203.119 270.424C203.503 271.096 203.695 271.88 203.695 272.776V280H201.055ZM193.159 280V262.72H195.799V280H193.159ZM211.73 280.24C210.578 280.24 209.538 279.984 208.61 279.472C207.698 278.944 206.97 278.224 206.426 277.312C205.898 276.4 205.634 275.376 205.634 274.24C205.634 273.104 205.898 272.088 206.426 271.192C206.954 270.28 207.666 269.56 208.562 269.032C209.474 268.504 210.482 268.24 211.586 268.24C212.658 268.24 213.602 268.488 214.418 268.984C215.25 269.48 215.898 270.16 216.362 271.024C216.842 271.888 217.082 272.872 217.082 273.976C217.082 274.168 217.066 274.368 217.034 274.576C217.018 274.768 216.986 274.984 216.938 275.224H207.482V273.064H215.57L214.586 273.928C214.554 273.224 214.418 272.632 214.178 272.152C213.938 271.672 213.594 271.304 213.146 271.048C212.714 270.792 212.178 270.664 211.538 270.664C210.866 270.664 210.282 270.808 209.786 271.096C209.29 271.384 208.906 271.792 208.634 272.32C208.362 272.832 208.226 273.448 208.226 274.168C208.226 274.888 208.37 275.52 208.658 276.064C208.946 276.608 209.354 277.032 209.882 277.336C210.41 277.624 211.018 277.768 211.706 277.768C212.298 277.768 212.842 277.664 213.338 277.456C213.85 277.248 214.282 276.944 214.634 276.544L216.314 278.248C215.754 278.904 215.074 279.4 214.274 279.736C213.474 280.072 212.626 280.24 211.73 280.24ZM224.502 280.24C223.366 280.24 222.334 279.976 221.406 279.448C220.494 278.92 219.774 278.2 219.246 277.288C218.718 276.376 218.454 275.36 218.454 274.24C218.454 273.104 218.718 272.088 219.246 271.192C219.774 270.28 220.494 269.56 221.406 269.032C222.334 268.504 223.366 268.24 224.502 268.24C225.398 268.24 226.23 268.416 226.998 268.768C227.782 269.104 228.446 269.592 228.99 270.232L227.262 271.984C226.926 271.584 226.518 271.288 226.038 271.096C225.574 270.888 225.062 270.784 224.502 270.784C223.846 270.784 223.262 270.936 222.75 271.24C222.254 271.528 221.862 271.928 221.574 272.44C221.302 272.952 221.166 273.552 221.166 274.24C221.166 274.912 221.302 275.512 221.574 276.04C221.862 276.552 222.254 276.96 222.75 277.264C223.262 277.552 223.846 277.696 224.502 277.696C225.062 277.696 225.574 277.6 226.038 277.408C226.518 277.2 226.926 276.896 227.262 276.496L228.99 278.248C228.446 278.888 227.782 279.384 226.998 279.736C226.23 280.072 225.398 280.24 224.502 280.24ZM238.214 280L233.342 274.12L238.19 268.48H241.334L235.766 274.816L235.886 273.304L241.574 280H238.214ZM230.894 280V262.72H233.534V280H230.894Z" fill="white"/>
<path d="M331.748 234.24C330.628 234.24 329.612 233.976 328.7 233.448C327.788 232.904 327.06 232.176 326.516 231.264C325.988 230.352 325.724 229.336 325.724 228.216C325.724 227.096 325.988 226.088 326.516 225.192C327.06 224.296 327.788 223.584 328.7 223.056C329.612 222.512 330.628 222.24 331.748 222.24C332.884 222.24 333.908 222.504 334.82 223.032C335.732 223.56 336.452 224.28 336.98 225.192C337.524 226.088 337.796 227.096 337.796 228.216C337.796 229.336 337.524 230.352 336.98 231.264C336.452 232.176 335.732 232.904 334.82 233.448C333.908 233.976 332.884 234.24 331.748 234.24ZM331.748 231.696C332.404 231.696 332.98 231.552 333.476 231.264C333.988 230.96 334.38 230.544 334.652 230.016C334.94 229.488 335.084 228.888 335.084 228.216C335.084 227.544 334.94 226.952 334.652 226.44C334.364 225.928 333.972 225.528 333.476 225.24C332.98 224.936 332.404 224.784 331.748 224.784C331.108 224.784 330.532 224.936 330.02 225.24C329.524 225.528 329.132 225.928 328.844 226.44C328.572 226.952 328.436 227.544 328.436 228.216C328.436 228.888 328.572 229.488 328.844 230.016C329.132 230.544 329.524 230.96 330.02 231.264C330.532 231.552 331.108 231.696 331.748 231.696ZM344.719 234.24C343.743 234.24 342.871 234.024 342.103 233.592C341.351 233.16 340.759 232.568 340.327 231.816C339.911 231.048 339.703 230.168 339.703 229.176V222.48H342.343V229.056C342.343 229.616 342.431 230.096 342.607 230.496C342.799 230.88 343.071 231.176 343.423 231.384C343.791 231.592 344.223 231.696 344.719 231.696C345.487 231.696 346.071 231.472 346.471 231.024C346.887 230.56 347.095 229.904 347.095 229.056V222.48H349.735V229.176C349.735 230.184 349.519 231.072 349.087 231.84C348.671 232.592 348.087 233.184 347.335 233.616C346.583 234.032 345.711 234.24 344.719 234.24ZM354.142 234V217.68H356.782V234H354.142ZM351.382 224.88V222.48H359.542V224.88H351.382Z" fill="white"/>
<path d="M308.665 364V340.096H314.143V364H308.665ZM324.552 364V349.757C324.552 348.164 324.054 346.935 323.058 346.072C322.062 345.176 320.833 344.727 319.372 344.727C318.376 344.727 317.48 344.927 316.683 345.325C315.92 345.723 315.305 346.304 314.841 347.068C314.376 347.798 314.143 348.695 314.143 349.757L312.002 348.562C312.002 346.736 312.4 345.159 313.197 343.831C313.994 342.503 315.073 341.474 316.434 340.743C317.795 339.98 319.323 339.598 321.016 339.598C322.709 339.598 324.236 339.963 325.597 340.694C326.959 341.424 328.038 342.453 328.834 343.781C329.631 345.109 330.03 346.703 330.03 348.562V364H324.552ZM340.438 364V349.757C340.438 348.164 339.94 346.935 338.944 346.072C337.948 345.176 336.719 344.727 335.259 344.727C334.296 344.727 333.416 344.927 332.619 345.325C331.822 345.723 331.192 346.304 330.727 347.068C330.262 347.798 330.03 348.695 330.03 349.757L326.942 348.562C327.108 346.736 327.639 345.159 328.536 343.831C329.432 342.503 330.577 341.474 331.972 340.743C333.399 339.98 334.96 339.598 336.653 339.598C338.379 339.598 339.94 339.963 341.334 340.694C342.729 341.424 343.841 342.453 344.671 343.781C345.501 345.109 345.916 346.703 345.916 348.562V364H340.438ZM359.278 364.249L349.069 340.096H355.095L362.067 357.825H360.324L367.695 340.096H373.77L362.665 364.249H359.278ZM352.157 373.96L359.577 358.671L362.665 364.249L358.233 373.96H352.157Z" fill="white"/>
<path d="M458.394 223V211.48H461.034V223H458.394ZM461.034 216.592L460.122 216.136C460.122 214.68 460.442 213.504 461.082 212.608C461.738 211.696 462.722 211.24 464.034 211.24C464.61 211.24 465.13 211.344 465.594 211.552C466.058 211.76 466.49 212.096 466.89 212.56L465.162 214.336C464.954 214.112 464.722 213.952 464.466 213.856C464.21 213.76 463.914 213.712 463.578 213.712C462.842 213.712 462.234 213.944 461.754 214.408C461.274 214.872 461.034 215.6 461.034 216.592ZM473.096 223.24C471.976 223.24 470.96 222.976 470.048 222.448C469.136 221.904 468.408 221.176 467.864 220.264C467.336 219.352 467.072 218.336 467.072 217.216C467.072 216.096 467.336 215.088 467.864 214.192C468.408 213.296 469.136 212.584 470.048 212.056C470.96 211.512 471.976 211.24 473.096 211.24C474.232 211.24 475.256 211.504 476.168 212.032C477.08 212.56 477.8 213.28 478.328 214.192C478.872 215.088 479.144 216.096 479.144 217.216C479.144 218.336 478.872 219.352 478.328 220.264C477.8 221.176 477.08 221.904 476.168 222.448C475.256 222.976 474.232 223.24 473.096 223.24ZM473.096 220.696C473.752 220.696 474.328 220.552 474.824 220.264C475.336 219.96 475.728 219.544 476 219.016C476.288 218.488 476.432 217.888 476.432 217.216C476.432 216.544 476.288 215.952 476 215.44C475.712 214.928 475.32 214.528 474.824 214.24C474.328 213.936 473.752 213.784 473.096 213.784C472.456 213.784 471.88 213.936 471.368 214.24C470.872 214.528 470.48 214.928 470.192 215.44C469.92 215.952 469.784 216.544 469.784 217.216C469.784 217.888 469.92 218.488 470.192 219.016C470.48 219.544 470.872 219.96 471.368 220.264C471.88 220.552 472.456 220.696 473.096 220.696ZM486.619 223.24C485.499 223.24 484.483 222.976 483.571 222.448C482.659 221.904 481.931 221.176 481.387 220.264C480.859 219.352 480.595 218.336 480.595 217.216C480.595 216.096 480.859 215.088 481.387 214.192C481.931 213.296 482.659 212.584 483.571 212.056C484.483 211.512 485.499 211.24 486.619 211.24C487.755 211.24 488.779 211.504 489.691 212.032C490.603 212.56 491.323 213.28 491.851 214.192C492.395 215.088 492.667 216.096 492.667 217.216C492.667 218.336 492.395 219.352 491.851 220.264C491.323 221.176 490.603 221.904 489.691 222.448C488.779 222.976 487.755 223.24 486.619 223.24ZM486.619 220.696C487.275 220.696 487.851 220.552 488.347 220.264C488.859 219.96 489.251 219.544 489.523 219.016C489.811 218.488 489.955 217.888 489.955 217.216C489.955 216.544 489.811 215.952 489.523 215.44C489.235 214.928 488.843 214.528 488.347 214.24C487.851 213.936 487.275 213.784 486.619 213.784C485.979 213.784 485.403 213.936 484.891 214.24C484.395 214.528 484.003 214.928 483.715 215.44C483.443 215.952 483.307 216.544 483.307 217.216C483.307 217.888 483.443 218.488 483.715 219.016C484.003 219.544 484.395 219.96 484.891 220.264C485.403 220.552 485.979 220.696 486.619 220.696ZM494.862 223V211.48H497.502V223H494.862ZM502.518 223V216.136C502.518 215.368 502.278 214.776 501.798 214.36C501.318 213.928 500.726 213.712 500.022 213.712C499.542 213.712 499.11 213.808 498.726 214C498.358 214.192 498.062 214.472 497.838 214.84C497.614 215.192 497.502 215.624 497.502 216.136L496.47 215.56C496.47 214.68 496.662 213.92 497.046 213.28C497.43 212.64 497.95 212.144 498.606 211.792C499.262 211.424 499.998 211.24 500.814 211.24C501.63 211.24 502.366 211.416 503.022 211.768C503.678 212.12 504.198 212.616 504.582 213.256C504.966 213.896 505.158 214.664 505.158 215.56V223H502.518ZM510.174 223V216.136C510.174 215.368 509.934 214.776 509.454 214.36C508.974 213.928 508.382 213.712 507.678 213.712C507.214 213.712 506.79 213.808 506.406 214C506.022 214.192 505.718 214.472 505.494 214.84C505.27 215.192 505.158 215.624 505.158 216.136L503.67 215.56C503.75 214.68 504.006 213.92 504.438 213.28C504.87 212.64 505.422 212.144 506.094 211.792C506.782 211.424 507.534 211.24 508.35 211.24C509.182 211.24 509.934 211.416 510.606 211.768C511.278 212.12 511.814 212.616 512.214 213.256C512.614 213.896 512.814 214.664 512.814 215.56V223H510.174Z" fill="white"/>
<path d="M530.257 334.24C529.217 334.24 528.273 333.976 527.425 333.448C526.593 332.92 525.929 332.208 525.433 331.312C524.953 330.4 524.713 329.384 524.713 328.264C524.713 327.128 524.953 326.112 525.433 325.216C525.929 324.304 526.593 323.584 527.425 323.056C528.273 322.512 529.217 322.24 530.257 322.24C531.137 322.24 531.913 322.432 532.585 322.816C533.273 323.184 533.817 323.696 534.217 324.352C534.617 325.008 534.817 325.752 534.817 326.584V329.896C534.817 330.728 534.617 331.472 534.217 332.128C533.833 332.784 533.297 333.304 532.609 333.688C531.921 334.056 531.137 334.24 530.257 334.24ZM530.689 331.744C531.665 331.744 532.449 331.416 533.041 330.76C533.649 330.104 533.953 329.264 533.953 328.24C533.953 327.552 533.817 326.944 533.545 326.416C533.273 325.888 532.889 325.48 532.393 325.192C531.913 324.888 531.345 324.736 530.689 324.736C530.049 324.736 529.481 324.888 528.985 325.192C528.505 325.48 528.121 325.888 527.833 326.416C527.561 326.944 527.425 327.552 527.425 328.24C527.425 328.928 527.561 329.536 527.833 330.064C528.121 330.592 528.505 331.008 528.985 331.312C529.481 331.6 530.049 331.744 530.689 331.744ZM533.785 334V330.904L534.241 328.096L533.785 325.312V322.48H536.425V334H533.785ZM547.251 334V327.352C547.251 326.584 547.003 325.952 546.507 325.456C546.027 324.96 545.403 324.712 544.635 324.712C544.123 324.712 543.667 324.824 543.267 325.048C542.867 325.272 542.555 325.584 542.331 325.984C542.107 326.384 541.995 326.84 541.995 327.352L540.963 326.776C540.963 325.896 541.155 325.12 541.539 324.448C541.923 323.76 542.451 323.224 543.123 322.84C543.811 322.44 544.579 322.24 545.427 322.24C546.291 322.24 547.059 322.464 547.731 322.912C548.403 323.344 548.931 323.912 549.315 324.616C549.699 325.304 549.891 326.024 549.891 326.776V334H547.251ZM539.355 334V322.48H541.995V334H539.355ZM557.397 334.24C556.357 334.24 555.413 333.976 554.565 333.448C553.733 332.92 553.069 332.208 552.573 331.312C552.093 330.4 551.853 329.384 551.853 328.264C551.853 327.128 552.093 326.112 552.573 325.216C553.069 324.304 553.733 323.584 554.565 323.056C555.413 322.512 556.357 322.24 557.397 322.24C558.277 322.24 559.053 322.432 559.725 322.816C560.413 323.184 560.957 323.696 561.357 324.352C561.757 325.008 561.957 325.752 561.957 326.584V329.896C561.957 330.728 561.757 331.472 561.357 332.128C560.973 332.784 560.437 333.304 559.749 333.688C559.061 334.056 558.277 334.24 557.397 334.24ZM557.829 331.744C558.485 331.744 559.053 331.6 559.533 331.312C560.029 331.008 560.413 330.592 560.685 330.064C560.957 329.536 561.093 328.928 561.093 328.24C561.093 327.552 560.957 326.944 560.685 326.416C560.413 325.888 560.029 325.48 559.533 325.192C559.053 324.888 558.485 324.736 557.829 324.736C557.189 324.736 556.621 324.888 556.125 325.192C555.645 325.48 555.261 325.888 554.973 326.416C554.701 326.944 554.565 327.552 554.565 328.24C554.565 328.928 554.701 329.536 554.973 330.064C555.261 330.592 555.645 331.008 556.125 331.312C556.621 331.6 557.189 331.744 557.829 331.744ZM563.565 334H560.925V330.904L561.381 328.096L560.925 325.312V316.72H563.565V334Z" fill="white"/>
<path d="M570.132 162V150.48H572.772V162H570.132ZM577.788 162V155.136C577.788 154.368 577.548 153.776 577.068 153.36C576.588 152.928 575.996 152.712 575.292 152.712C574.812 152.712 574.38 152.808 573.996 153C573.628 153.192 573.332 153.472 573.108 153.84C572.884 154.192 572.772 154.624 572.772 155.136L571.74 154.56C571.74 153.68 571.932 152.92 572.316 152.28C572.7 151.64 573.22 151.144 573.876 150.792C574.532 150.424 575.268 150.24 576.084 150.24C576.9 150.24 577.636 150.416 578.292 150.768C578.948 151.12 579.468 151.616 579.852 152.256C580.236 152.896 580.428 153.664 580.428 154.56V162H577.788ZM585.444 162V155.136C585.444 154.368 585.204 153.776 584.724 153.36C584.244 152.928 583.652 152.712 582.948 152.712C582.484 152.712 582.06 152.808 581.676 153C581.292 153.192 580.988 153.472 580.764 153.84C580.54 154.192 580.428 154.624 580.428 155.136L578.94 154.56C579.02 153.68 579.276 152.92 579.708 152.28C580.14 151.64 580.692 151.144 581.364 150.792C582.052 150.424 582.804 150.24 583.62 150.24C584.452 150.24 585.204 150.416 585.876 150.768C586.548 151.12 587.084 151.616 587.484 152.256C587.884 152.896 588.084 153.664 588.084 154.56V162H585.444ZM596.156 162.24C595.004 162.24 593.964 161.984 593.036 161.472C592.124 160.944 591.396 160.224 590.852 159.312C590.324 158.4 590.06 157.376 590.06 156.24C590.06 155.104 590.324 154.088 590.852 153.192C591.38 152.28 592.092 151.56 592.988 151.032C593.9 150.504 594.908 150.24 596.012 150.24C597.084 150.24 598.028 150.488 598.844 150.984C599.676 151.48 600.324 152.16 600.788 153.024C601.268 153.888 601.508 154.872 601.508 155.976C601.508 156.168 601.492 156.368 601.46 156.576C601.444 156.768 601.412 156.984 601.364 157.224H591.908V155.064H599.996L599.012 155.928C598.98 155.224 598.844 154.632 598.604 154.152C598.364 153.672 598.02 153.304 597.572 153.048C597.14 152.792 596.604 152.664 595.964 152.664C595.292 152.664 594.708 152.808 594.212 153.096C593.716 153.384 593.332 153.792 593.06 154.32C592.788 154.832 592.652 155.448 592.652 156.168C592.652 156.888 592.796 157.52 593.084 158.064C593.372 158.608 593.78 159.032 594.308 159.336C594.836 159.624 595.444 159.768 596.132 159.768C596.724 159.768 597.268 159.664 597.764 159.456C598.276 159.248 598.708 158.944 599.06 158.544L600.74 160.248C600.18 160.904 599.5 161.4 598.7 161.736C597.9 162.072 597.052 162.24 596.156 162.24ZM607.392 162.24C606.752 162.24 606.136 162.16 605.544 162C604.952 161.824 604.408 161.584 603.912 161.28C603.416 160.96 602.984 160.576 602.616 160.128L604.296 158.448C604.696 158.912 605.152 159.264 605.664 159.504C606.192 159.728 606.784 159.84 607.44 159.84C608.032 159.84 608.48 159.752 608.784 159.576C609.088 159.4 609.24 159.144 609.24 158.808C609.24 158.456 609.096 158.184 608.808 157.992C608.52 157.8 608.144 157.64 607.68 157.512C607.232 157.368 606.752 157.224 606.24 157.08C605.744 156.936 605.264 156.744 604.8 156.504C604.352 156.248 603.984 155.904 603.696 155.472C603.408 155.04 603.264 154.48 603.264 153.792C603.264 153.056 603.432 152.424 603.768 151.896C604.12 151.368 604.608 150.96 605.232 150.672C605.872 150.384 606.632 150.24 607.512 150.24C608.44 150.24 609.256 150.408 609.96 150.744C610.68 151.064 611.28 151.552 611.76 152.208L610.08 153.888C609.744 153.472 609.36 153.16 608.928 152.952C608.496 152.744 608 152.64 607.44 152.64C606.912 152.64 606.504 152.72 606.216 152.88C605.928 153.04 605.784 153.272 605.784 153.576C605.784 153.896 605.928 154.144 606.216 154.32C606.504 154.496 606.872 154.648 607.32 154.776C607.784 154.904 608.264 155.048 608.76 155.208C609.272 155.352 609.752 155.56 610.2 155.832C610.664 156.088 611.04 156.44 611.328 156.888C611.616 157.32 611.76 157.888 611.76 158.592C611.76 159.712 611.368 160.6 610.584 161.256C609.8 161.912 608.736 162.24 607.392 162.24ZM617.705 162.24C617.065 162.24 616.449 162.16 615.857 162C615.265 161.824 614.721 161.584 614.225 161.28C613.729 160.96 613.297 160.576 612.929 160.128L614.609 158.448C615.009 158.912 615.465 159.264 615.977 159.504C616.505 159.728 617.097 159.84 617.753 159.84C618.345 159.84 618.793 159.752 619.097 159.576C619.401 159.4 619.553 159.144 619.553 158.808C619.553 158.456 619.409 158.184 619.121 157.992C618.833 157.8 618.457 157.64 617.993 157.512C617.545 157.368 617.065 157.224 616.553 157.08C616.057 156.936 615.577 156.744 615.113 156.504C614.665 156.248 614.297 155.904 614.009 155.472C613.721 155.04 613.577 154.48 613.577 153.792C613.577 153.056 613.745 152.424 614.081 151.896C614.433 151.368 614.921 150.96 615.545 150.672C616.185 150.384 616.945 150.24 617.825 150.24C618.753 150.24 619.569 150.408 620.273 150.744C620.993 151.064 621.593 151.552 622.073 152.208L620.393 153.888C620.057 153.472 619.673 153.16 619.241 152.952C618.809 152.744 618.313 152.64 617.753 152.64C617.225 152.64 616.817 152.72 616.529 152.88C616.241 153.04 616.097 153.272 616.097 153.576C616.097 153.896 616.241 154.144 616.529 154.32C616.817 154.496 617.185 154.648 617.633 154.776C618.097 154.904 618.577 155.048 619.073 155.208C619.585 155.352 620.065 155.56 620.513 155.832C620.977 156.088 621.353 156.44 621.641 156.888C621.929 157.32 622.073 157.888 622.073 158.592C622.073 159.712 621.681 160.6 620.897 161.256C620.113 161.912 619.049 162.24 617.705 162.24ZM629.073 162.24C628.033 162.24 627.089 161.976 626.241 161.448C625.409 160.92 624.745 160.208 624.249 159.312C623.769 158.4 623.529 157.384 623.529 156.264C623.529 155.128 623.769 154.112 624.249 153.216C624.745 152.304 625.409 151.584 626.241 151.056C627.089 150.512 628.033 150.24 629.073 150.24C629.953 150.24 630.729 150.432 631.401 150.816C632.089 151.184 632.633 151.696 633.033 152.352C633.433 153.008 633.633 153.752 633.633 154.584V157.896C633.633 158.728 633.433 159.472 633.033 160.128C632.649 160.784 632.113 161.304 631.425 161.688C630.737 162.056 629.953 162.24 629.073 162.24ZM629.505 159.744C630.481 159.744 631.265 159.416 631.857 158.76C632.465 158.104 632.769 157.264 632.769 156.24C632.769 155.552 632.633 154.944 632.361 154.416C632.089 153.888 631.705 153.48 631.209 153.192C630.729 152.888 630.161 152.736 629.505 152.736C628.865 152.736 628.297 152.888 627.801 153.192C627.321 153.48 626.937 153.888 626.649 154.416C626.377 154.944 626.241 155.552 626.241 156.24C626.241 156.928 626.377 157.536 626.649 158.064C626.937 158.592 627.321 159.008 627.801 159.312C628.297 159.6 628.865 159.744 629.505 159.744ZM632.601 162V158.904L633.057 156.096L632.601 153.312V150.48H635.241V162H632.601ZM642.971 167.04C641.755 167.04 640.691 166.816 639.779 166.368C638.867 165.936 638.131 165.32 637.571 164.52L639.299 162.792C639.763 163.368 640.291 163.8 640.883 164.088C641.475 164.376 642.187 164.52 643.019 164.52C644.059 164.52 644.883 164.248 645.491 163.704C646.099 163.176 646.403 162.448 646.403 161.52V158.688L646.859 156.144L646.403 153.576V150.48H649.043V161.52C649.043 162.624 648.787 163.584 648.275 164.4C647.763 165.232 647.051 165.88 646.139 166.344C645.227 166.808 644.171 167.04 642.971 167.04ZM642.851 161.76C641.827 161.76 640.899 161.512 640.067 161.016C639.251 160.504 638.603 159.808 638.123 158.928C637.659 158.048 637.427 157.064 637.427 155.976C637.427 154.888 637.659 153.912 638.123 153.048C638.603 152.184 639.251 151.504 640.067 151.008C640.899 150.496 641.827 150.24 642.851 150.24C643.763 150.24 644.563 150.424 645.251 150.792C645.939 151.16 646.475 151.672 646.859 152.328C647.243 152.968 647.435 153.72 647.435 154.584V157.416C647.435 158.264 647.235 159.016 646.835 159.672C646.451 160.328 645.915 160.84 645.227 161.208C644.539 161.576 643.747 161.76 642.851 161.76ZM643.379 159.264C644.019 159.264 644.579 159.128 645.059 158.856C645.539 158.584 645.907 158.208 646.163 157.728C646.435 157.232 646.571 156.656 646.571 156C646.571 155.344 646.435 154.776 646.163 154.296C645.907 153.8 645.539 153.416 645.059 153.144C644.579 152.872 644.019 152.736 643.379 152.736C642.739 152.736 642.171 152.872 641.675 153.144C641.195 153.416 640.819 153.8 640.547 154.296C640.275 154.776 640.139 155.344 640.139 156C640.139 156.64 640.275 157.208 640.547 157.704C640.819 158.2 641.195 158.584 641.675 158.856C642.171 159.128 642.739 159.264 643.379 159.264ZM657.328 162.24C656.176 162.24 655.136 161.984 654.208 161.472C653.296 160.944 652.568 160.224 652.024 159.312C651.496 158.4 651.232 157.376 651.232 156.24C651.232 155.104 651.496 154.088 652.024 153.192C652.552 152.28 653.264 151.56 654.16 151.032C655.072 150.504 656.08 150.24 657.184 150.24C658.256 150.24 659.2 150.488 660.016 150.984C660.848 151.48 661.496 152.16 661.96 153.024C662.44 153.888 662.68 154.872 662.68 155.976C662.68 156.168 662.664 156.368 662.632 156.576C662.616 156.768 662.584 156.984 662.536 157.224H653.08V155.064H661.168L660.184 155.928C660.152 155.224 660.016 154.632 659.776 154.152C659.536 153.672 659.192 153.304 658.744 153.048C658.312 152.792 657.776 152.664 657.136 152.664C656.464 152.664 655.88 152.808 655.384 153.096C654.888 153.384 654.504 153.792 654.232 154.32C653.96 154.832 653.824 155.448 653.824 156.168C653.824 156.888 653.968 157.52 654.256 158.064C654.544 158.608 654.952 159.032 655.48 159.336C656.008 159.624 656.616 159.768 657.304 159.768C657.896 159.768 658.44 159.664 658.936 159.456C659.448 159.248 659.88 158.944 660.232 158.544L661.912 160.248C661.352 160.904 660.672 161.4 659.872 161.736C659.072 162.072 658.224 162.24 657.328 162.24Z" fill="white"/>
<path d="M407.668 166V143.92H412.728V166H407.668ZM422.342 166V152.844C422.342 151.372 421.882 150.237 420.962 149.44C420.042 148.612 418.907 148.198 417.558 148.198C416.638 148.198 415.81 148.382 415.074 148.75C414.368 149.118 413.801 149.655 413.372 150.36C412.942 151.035 412.728 151.863 412.728 152.844L410.75 151.74C410.75 150.053 411.118 148.597 411.854 147.37C412.59 146.143 413.586 145.193 414.844 144.518C416.101 143.813 417.512 143.46 419.076 143.46C420.64 143.46 422.05 143.797 423.308 144.472C424.565 145.147 425.562 146.097 426.298 147.324C427.034 148.551 427.402 150.023 427.402 151.74V166H422.342ZM437.016 166V152.844C437.016 151.372 436.556 150.237 435.636 149.44C434.716 148.612 433.581 148.198 432.232 148.198C431.342 148.198 430.53 148.382 429.794 148.75C429.058 149.118 428.475 149.655 428.046 150.36C427.616 151.035 427.402 151.863 427.402 152.844L424.55 151.74C424.703 150.053 425.194 148.597 426.022 147.37C426.85 146.143 427.908 145.193 429.196 144.518C430.514 143.813 431.956 143.46 433.52 143.46C435.114 143.46 436.556 143.797 437.844 144.472C439.132 145.147 440.159 146.097 440.926 147.324C441.692 148.551 442.076 150.023 442.076 151.74V166H437.016ZM457.547 166.46C455.339 166.46 453.345 165.969 451.567 164.988C449.819 163.976 448.423 162.596 447.381 160.848C446.369 159.1 445.863 157.137 445.863 154.96C445.863 152.783 446.369 150.835 447.381 149.118C448.393 147.37 449.757 145.99 451.475 144.978C453.223 143.966 455.155 143.46 457.271 143.46C459.325 143.46 461.135 143.935 462.699 144.886C464.293 145.837 465.535 147.14 466.425 148.796C467.345 150.452 467.805 152.338 467.805 154.454C467.805 154.822 467.774 155.205 467.713 155.604C467.682 155.972 467.621 156.386 467.529 156.846H449.405V152.706H464.907L463.021 154.362C462.959 153.013 462.699 151.878 462.239 150.958C461.779 150.038 461.119 149.333 460.261 148.842C459.433 148.351 458.405 148.106 457.179 148.106C455.891 148.106 454.771 148.382 453.821 148.934C452.87 149.486 452.134 150.268 451.613 151.28C451.091 152.261 450.831 153.442 450.831 154.822C450.831 156.202 451.107 157.413 451.659 158.456C452.211 159.499 452.993 160.311 454.005 160.894C455.017 161.446 456.182 161.722 457.501 161.722C458.635 161.722 459.678 161.523 460.629 161.124C461.61 160.725 462.438 160.143 463.113 159.376L466.333 162.642C465.259 163.899 463.956 164.85 462.423 165.494C460.889 166.138 459.264 166.46 457.547 166.46Z" fill="white"/>
<path d="M681.37 371.24C680.33 371.24 679.386 370.976 678.538 370.448C677.706 369.92 677.042 369.208 676.546 368.312C676.066 367.4 675.826 366.384 675.826 365.264C675.826 364.128 676.066 363.112 676.546 362.216C677.042 361.304 677.706 360.584 678.538 360.056C679.386 359.512 680.33 359.24 681.37 359.24C682.25 359.24 683.026 359.432 683.698 359.816C684.386 360.184 684.93 360.696 685.33 361.352C685.73 362.008 685.93 362.752 685.93 363.584V366.896C685.93 367.728 685.73 368.472 685.33 369.128C684.946 369.784 684.41 370.304 683.722 370.688C683.034 371.056 682.25 371.24 681.37 371.24ZM681.802 368.744C682.778 368.744 683.562 368.416 684.154 367.76C684.762 367.104 685.066 366.264 685.066 365.24C685.066 364.552 684.93 363.944 684.658 363.416C684.386 362.888 684.002 362.48 683.506 362.192C683.026 361.888 682.458 361.736 681.802 361.736C681.162 361.736 680.594 361.888 680.098 362.192C679.618 362.48 679.234 362.888 678.946 363.416C678.674 363.944 678.538 364.552 678.538 365.24C678.538 365.928 678.674 366.536 678.946 367.064C679.234 367.592 679.618 368.008 680.098 368.312C680.594 368.6 681.162 368.744 681.802 368.744ZM684.898 371V367.904L685.354 365.096L684.898 362.312V359.48H687.538V371H684.898ZM696.636 371.24C695.756 371.24 694.972 371.056 694.284 370.688C693.596 370.304 693.052 369.784 692.652 369.128C692.268 368.472 692.076 367.728 692.076 366.896V363.584C692.076 362.752 692.276 362.008 692.676 361.352C693.076 360.696 693.62 360.184 694.308 359.816C694.996 359.432 695.772 359.24 696.636 359.24C697.676 359.24 698.612 359.512 699.444 360.056C700.292 360.584 700.956 361.304 701.436 362.216C701.932 363.112 702.18 364.128 702.18 365.264C702.18 366.384 701.932 367.4 701.436 368.312C700.956 369.208 700.292 369.92 699.444 370.448C698.612 370.976 697.676 371.24 696.636 371.24ZM690.468 371V353.72H693.108V362.312L692.652 365.096L693.108 367.904V371H690.468ZM696.204 368.744C696.844 368.744 697.404 368.6 697.884 368.312C698.38 368.008 698.764 367.592 699.036 367.064C699.324 366.536 699.468 365.928 699.468 365.24C699.468 364.552 699.324 363.944 699.036 363.416C698.764 362.888 698.38 362.48 697.884 362.192C697.404 361.888 696.844 361.736 696.204 361.736C695.564 361.736 694.996 361.888 694.5 362.192C694.004 362.48 693.62 362.888 693.348 363.416C693.076 363.944 692.94 364.552 692.94 365.24C692.94 365.928 693.076 366.536 693.348 367.064C693.62 367.592 694.004 368.008 694.5 368.312C694.996 368.6 695.564 368.744 696.204 368.744ZM709.67 371.24C708.55 371.24 707.534 370.976 706.622 370.448C705.71 369.904 704.982 369.176 704.438 368.264C703.91 367.352 703.646 366.336 703.646 365.216C703.646 364.096 703.91 363.088 704.438 362.192C704.982 361.296 705.71 360.584 706.622 360.056C707.534 359.512 708.55 359.24 709.67 359.24C710.806 359.24 711.83 359.504 712.742 360.032C713.654 360.56 714.374 361.28 714.902 362.192C715.446 363.088 715.718 364.096 715.718 365.216C715.718 366.336 715.446 367.352 714.902 368.264C714.374 369.176 713.654 369.904 712.742 370.448C711.83 370.976 710.806 371.24 709.67 371.24ZM709.67 368.696C710.326 368.696 710.902 368.552 711.398 368.264C711.91 367.96 712.302 367.544 712.574 367.016C712.862 366.488 713.006 365.888 713.006 365.216C713.006 364.544 712.862 363.952 712.574 363.44C712.286 362.928 711.894 362.528 711.398 362.24C710.902 361.936 710.326 361.784 709.67 361.784C709.03 361.784 708.454 361.936 707.942 362.24C707.446 362.528 707.054 362.928 706.766 363.44C706.494 363.952 706.358 364.544 706.358 365.216C706.358 365.888 706.494 366.488 706.766 367.016C707.054 367.544 707.446 367.96 707.942 368.264C708.454 368.552 709.03 368.696 709.67 368.696ZM722.641 371.24C721.665 371.24 720.793 371.024 720.025 370.592C719.273 370.16 718.681 369.568 718.249 368.816C717.833 368.048 717.625 367.168 717.625 366.176V359.48H720.265V366.056C720.265 366.616 720.353 367.096 720.529 367.496C720.721 367.88 720.993 368.176 721.345 368.384C721.713 368.592 722.145 368.696 722.641 368.696C723.409 368.696 723.993 368.472 724.393 368.024C724.809 367.56 725.017 366.904 725.017 366.056V359.48H727.657V366.176C727.657 367.184 727.441 368.072 727.009 368.84C726.593 369.592 726.009 370.184 725.257 370.616C724.505 371.032 723.633 371.24 722.641 371.24ZM732.064 371V354.68H734.704V371H732.064ZM729.304 361.88V359.48H737.464V361.88H729.304Z" fill="white"/>
<path d="M609.707 261.12L604.787 249.48H607.691L611.051 258.024H610.211L613.763 249.48H616.691L611.339 261.12H609.707ZM606.275 265.8L609.851 258.432L611.339 261.12L609.203 265.8H606.275ZM623.103 261.24C621.983 261.24 620.967 260.976 620.055 260.448C619.143 259.904 618.415 259.176 617.871 258.264C617.343 257.352 617.079 256.336 617.079 255.216C617.079 254.096 617.343 253.088 617.871 252.192C618.415 251.296 619.143 250.584 620.055 250.056C620.967 249.512 621.983 249.24 623.103 249.24C624.239 249.24 625.263 249.504 626.175 250.032C627.087 250.56 627.807 251.28 628.335 252.192C628.879 253.088 629.151 254.096 629.151 255.216C629.151 256.336 628.879 257.352 628.335 258.264C627.807 259.176 627.087 259.904 626.175 260.448C625.263 260.976 624.239 261.24 623.103 261.24ZM623.103 258.696C623.759 258.696 624.335 258.552 624.831 258.264C625.343 257.96 625.735 257.544 626.007 257.016C626.295 256.488 626.439 255.888 626.439 255.216C626.439 254.544 626.295 253.952 626.007 253.44C625.719 252.928 625.327 252.528 624.831 252.24C624.335 251.936 623.759 251.784 623.103 251.784C622.463 251.784 621.887 251.936 621.375 252.24C620.879 252.528 620.487 252.928 620.199 253.44C619.927 253.952 619.791 254.544 619.791 255.216C619.791 255.888 619.927 256.488 620.199 257.016C620.487 257.544 620.879 257.96 621.375 258.264C621.887 258.552 622.463 258.696 623.103 258.696ZM636.075 261.24C635.099 261.24 634.227 261.024 633.459 260.592C632.707 260.16 632.115 259.568 631.683 258.816C631.267 258.048 631.059 257.168 631.059 256.176V249.48H633.699V256.056C633.699 256.616 633.787 257.096 633.963 257.496C634.155 257.88 634.427 258.176 634.779 258.384C635.147 258.592 635.579 258.696 636.075 258.696C636.843 258.696 637.427 258.472 637.827 258.024C638.243 257.56 638.451 256.904 638.451 256.056V249.48H641.091V256.176C641.091 257.184 640.875 258.072 640.443 258.84C640.027 259.592 639.443 260.184 638.691 260.616C637.939 261.032 637.067 261.24 636.075 261.24ZM643.745 261V249.48H646.385V261H643.745ZM646.385 254.592L645.473 254.136C645.473 252.68 645.793 251.504 646.433 250.608C647.089 249.696 648.073 249.24 649.385 249.24C649.961 249.24 650.481 249.344 650.945 249.552C651.409 249.76 651.841 250.096 652.241 250.56L650.513 252.336C650.305 252.112 650.073 251.952 649.817 251.856C649.561 251.76 649.265 251.712 648.929 251.712C648.193 251.712 647.585 251.944 647.105 252.408C646.625 252.872 646.385 253.6 646.385 254.592Z" fill="white"/>
<path d="M769.18 332V307.055C769.18 305.637 769.49 304.382 770.11 303.289C770.76 302.166 771.646 301.28 772.769 300.63C773.891 299.98 775.206 299.655 776.712 299.655C777.835 299.655 778.809 299.847 779.636 300.231C780.493 300.586 781.291 301.103 782.029 301.782L778.839 304.972C778.544 304.736 778.219 304.559 777.864 304.441C777.539 304.293 777.155 304.219 776.712 304.219C775.856 304.219 775.191 304.47 774.718 304.972C774.275 305.474 774.054 306.154 774.054 307.01V332H769.18ZM764.084 315.163V310.732H784.82V315.163H764.084ZM782.029 332V310.732H786.903V332H782.029ZM784.466 308.871C783.639 308.871 782.945 308.591 782.384 308.03C781.852 307.468 781.586 306.774 781.586 305.947C781.586 305.12 781.852 304.426 782.384 303.865C782.945 303.303 783.639 303.023 784.466 303.023C785.323 303.023 786.017 303.303 786.548 303.865C787.08 304.426 787.346 305.12 787.346 305.947C787.346 306.774 787.08 307.468 786.548 308.03C786.017 308.591 785.323 308.871 784.466 308.871ZM806.924 332V319.727C806.924 318.309 806.466 317.142 805.551 316.226C804.664 315.311 803.512 314.853 802.095 314.853C801.149 314.853 800.307 315.06 799.569 315.473C798.831 315.887 798.255 316.463 797.841 317.201C797.427 317.94 797.221 318.782 797.221 319.727L795.315 318.663C795.315 317.039 795.67 315.606 796.379 314.366C797.088 313.095 798.063 312.106 799.303 311.397C800.573 310.658 801.991 310.289 803.557 310.289C805.152 310.289 806.57 310.703 807.81 311.53C809.051 312.327 810.026 313.376 810.735 314.676C811.443 315.946 811.798 317.275 811.798 318.663V332H806.924ZM792.347 332V310.732H797.221V332H792.347ZM825.657 332.443C823.737 332.443 821.994 331.956 820.428 330.981C818.892 330.006 817.666 328.692 816.751 327.038C815.865 325.354 815.421 323.478 815.421 321.41C815.421 319.313 815.865 317.438 816.751 315.783C817.666 314.1 818.892 312.77 820.428 311.796C821.994 310.791 823.737 310.289 825.657 310.289C827.281 310.289 828.714 310.644 829.954 311.353C831.225 312.032 832.229 312.977 832.967 314.188C833.706 315.399 834.075 316.773 834.075 318.309V324.423C834.075 325.959 833.706 327.333 832.967 328.544C832.258 329.755 831.269 330.715 829.999 331.424C828.729 332.103 827.281 332.443 825.657 332.443ZM826.454 327.835C827.665 327.835 828.714 327.569 829.6 327.038C830.516 326.476 831.225 325.708 831.727 324.734C832.229 323.759 832.48 322.636 832.48 321.366C832.48 320.096 832.229 318.974 831.727 317.999C831.225 317.024 830.516 316.271 829.6 315.739C828.714 315.178 827.665 314.897 826.454 314.897C825.273 314.897 824.224 315.178 823.308 315.739C822.422 316.271 821.713 317.024 821.181 317.999C820.679 318.974 820.428 320.096 820.428 321.366C820.428 322.636 820.679 323.759 821.181 324.734C821.713 325.708 822.422 326.476 823.308 327.038C824.224 327.569 825.273 327.835 826.454 327.835ZM837.044 332H832.17V326.284L833.012 321.1L832.17 315.961V300.098H837.044V332ZM842.497 332V310.732H847.371V332H842.497ZM844.934 306.833C844.107 306.833 843.413 306.553 842.851 305.991C842.32 305.43 842.054 304.736 842.054 303.909C842.054 303.082 842.32 302.388 842.851 301.826C843.413 301.265 844.107 300.985 844.934 300.985C845.79 300.985 846.485 301.265 847.016 301.826C847.548 302.388 847.814 303.082 847.814 303.909C847.814 304.736 847.548 305.43 847.016 305.991C846.485 306.553 845.79 306.833 844.934 306.833ZM867.414 332V319.727C867.414 318.309 866.957 317.142 866.041 316.226C865.155 315.311 864.003 314.853 862.585 314.853C861.64 314.853 860.798 315.06 860.059 315.473C859.321 315.887 858.745 316.463 858.331 317.201C857.918 317.94 857.711 318.782 857.711 319.727L855.806 318.663C855.806 317.039 856.16 315.606 856.869 314.366C857.578 313.095 858.553 312.106 859.794 311.397C861.064 310.658 862.482 310.289 864.047 310.289C865.642 310.289 867.06 310.703 868.301 311.53C869.541 312.327 870.516 313.376 871.225 314.676C871.934 315.946 872.288 317.275 872.288 318.663V332H867.414ZM852.837 332V310.732H857.711V332H852.837ZM886.103 341.305C883.858 341.305 881.893 340.891 880.21 340.064C878.526 339.266 877.167 338.129 876.133 336.652L879.324 333.462C880.18 334.526 881.155 335.323 882.248 335.855C883.341 336.386 884.655 336.652 886.191 336.652C888.111 336.652 889.632 336.15 890.755 335.146C891.877 334.171 892.439 332.827 892.439 331.114V325.886L893.28 321.189L892.439 316.448V310.732H897.312V331.114C897.312 333.152 896.84 334.924 895.895 336.431C894.949 337.967 893.635 339.163 891.951 340.02C890.268 340.876 888.318 341.305 886.103 341.305ZM885.881 331.557C883.991 331.557 882.277 331.099 880.741 330.183C879.235 329.238 878.039 327.953 877.152 326.329C876.296 324.704 875.868 322.887 875.868 320.879C875.868 318.87 876.296 317.068 877.152 315.473C878.039 313.878 879.235 312.623 880.741 311.707C882.277 310.762 883.991 310.289 885.881 310.289C887.565 310.289 889.042 310.629 890.312 311.308C891.582 311.988 892.572 312.933 893.28 314.144C893.989 315.326 894.344 316.714 894.344 318.309V323.537C894.344 325.103 893.975 326.491 893.236 327.702C892.527 328.913 891.538 329.858 890.268 330.538C888.997 331.217 887.535 331.557 885.881 331.557ZM886.856 326.949C888.037 326.949 889.071 326.698 889.957 326.196C890.844 325.694 891.523 324.999 891.996 324.113C892.498 323.198 892.749 322.134 892.749 320.923C892.749 319.712 892.498 318.663 891.996 317.777C891.523 316.862 890.844 316.153 889.957 315.65C889.071 315.148 888.037 314.897 886.856 314.897C885.674 314.897 884.626 315.148 883.71 315.65C882.824 316.153 882.13 316.862 881.628 317.777C881.125 318.663 880.874 319.712 880.874 320.923C880.874 322.105 881.125 323.153 881.628 324.069C882.13 324.985 882.824 325.694 883.71 326.196C884.626 326.698 885.674 326.949 886.856 326.949ZM909.683 332.443C908.501 332.443 907.364 332.295 906.271 332C905.178 331.675 904.174 331.232 903.258 330.671C902.343 330.08 901.545 329.371 900.866 328.544L903.967 325.442C904.706 326.299 905.548 326.949 906.493 327.392C907.468 327.806 908.561 328.012 909.772 328.012C910.865 328.012 911.692 327.85 912.253 327.525C912.814 327.2 913.095 326.727 913.095 326.107C913.095 325.457 912.829 324.955 912.297 324.601C911.765 324.246 911.071 323.951 910.215 323.714C909.388 323.449 908.501 323.183 907.556 322.917C906.641 322.651 905.754 322.297 904.898 321.854C904.071 321.381 903.391 320.746 902.86 319.948C902.328 319.151 902.062 318.117 902.062 316.847C902.062 315.488 902.372 314.321 902.993 313.346C903.642 312.372 904.543 311.618 905.695 311.087C906.877 310.555 908.28 310.289 909.905 310.289C911.618 310.289 913.124 310.599 914.424 311.22C915.753 311.81 916.861 312.711 917.747 313.922L914.645 317.024C914.025 316.256 913.316 315.68 912.519 315.296C911.721 314.912 910.805 314.72 909.772 314.72C908.797 314.72 908.044 314.868 907.512 315.163C906.98 315.458 906.714 315.887 906.714 316.448C906.714 317.039 906.98 317.497 907.512 317.822C908.044 318.146 908.723 318.427 909.55 318.663C910.407 318.9 911.293 319.166 912.209 319.461C913.154 319.727 914.04 320.111 914.867 320.613C915.724 321.086 916.418 321.735 916.949 322.562C917.481 323.36 917.747 324.409 917.747 325.708C917.747 327.776 917.023 329.415 915.576 330.626C914.129 331.838 912.164 332.443 909.683 332.443Z" fill="white"/>
</g>
<defs>
<clipPath id="clip0_337_2">
<rect width="980" height="400" fill="white"/>
</clipPath>
</defs>
</svg>
