<svg width="980" height="400" viewBox="0 0 980 400" fill="none" xmlns="http://www.w3.org/2000/svg">
<g clip-path="url(#clip0_341_2)">
<path d="M0 204L-2.37587 7.27769C-2.44387 1.6477 2.1475 -2.9285 7.77722 -2.84189L186.919 -0.0858929C190.388 -0.0325242 193.581 1.81508 195.356 4.79586L311.092 199.117C312.895 202.145 316.159 204 319.683 204H671.458C674.905 204 678.11 202.224 679.938 199.3L801.586 4.66206C803.401 1.75891 806.574 -0.014244 809.998 -0.037711L974.431 -1.16487C979.981 -1.20291 984.5 3.28526 984.5 8.8349V393C984.5 398.523 980.023 403 974.5 403H6.67744C1.08579 403 -3.41936 398.415 -3.32103 392.824L0 204Z" fill="#101010"/>
<path d="M57.7685 175.24C56.5525 175.24 55.4245 175.024 54.3845 174.592C53.3605 174.144 52.4645 173.528 51.6965 172.744C50.9285 171.944 50.3365 171.024 49.9205 169.984C49.5045 168.928 49.2965 167.8 49.2965 166.6C49.2965 165.4 49.5045 164.28 49.9205 163.24C50.3365 162.184 50.9285 161.264 51.6965 160.48C52.4645 159.696 53.3605 159.08 54.3845 158.632C55.4245 158.184 56.5525 157.96 57.7685 157.96C59.1285 157.96 60.3045 158.184 61.2965 158.632C62.2885 159.08 63.1685 159.688 63.9365 160.456L62.0645 162.328C61.5685 161.784 60.9605 161.36 60.2405 161.056C59.5365 160.752 58.7125 160.6 57.7685 160.6C56.9365 160.6 56.1765 160.744 55.4885 161.032C54.8005 161.32 54.2005 161.736 53.6885 162.28C53.1925 162.808 52.8085 163.44 52.5365 164.176C52.2645 164.912 52.1285 165.72 52.1285 166.6C52.1285 167.48 52.2645 168.288 52.5365 169.024C52.8085 169.76 53.1925 170.4 53.6885 170.944C54.2005 171.472 54.8005 171.88 55.4885 172.168C56.1765 172.456 56.9365 172.6 57.7685 172.6C58.7925 172.6 59.6565 172.448 60.3605 172.144C61.0805 171.824 61.6885 171.392 62.1845 170.848L64.0565 172.72C63.2885 173.504 62.3845 174.12 61.3445 174.568C60.3045 175.016 59.1125 175.24 57.7685 175.24ZM74.0553 175V168.352C74.0553 167.584 73.8073 166.952 73.3113 166.456C72.8313 165.96 72.2073 165.712 71.4393 165.712C70.9273 165.712 70.4713 165.824 70.0713 166.048C69.6713 166.272 69.3593 166.584 69.1353 166.984C68.9113 167.384 68.7993 167.84 68.7993 168.352L67.7673 167.776C67.7673 166.896 67.9593 166.12 68.3433 165.448C68.7273 164.76 69.2553 164.224 69.9273 163.84C70.6153 163.44 71.3833 163.24 72.2313 163.24C73.0953 163.24 73.8633 163.432 74.5353 163.816C75.2073 164.2 75.7353 164.736 76.1193 165.424C76.5033 166.096 76.6953 166.88 76.6953 167.776V175H74.0553ZM66.1593 175V157.72H68.7993V175H66.1593ZM84.7301 175.24C83.5781 175.24 82.5381 174.984 81.6101 174.472C80.6981 173.944 79.9701 173.224 79.4261 172.312C78.8981 171.4 78.6341 170.376 78.6341 169.24C78.6341 168.104 78.8981 167.088 79.4261 166.192C79.9541 165.28 80.6661 164.56 81.5621 164.032C82.4741 163.504 83.4821 163.24 84.5861 163.24C85.6581 163.24 86.6021 163.488 87.4181 163.984C88.2501 164.48 88.8981 165.16 89.3621 166.024C89.8421 166.888 90.0821 167.872 90.0821 168.976C90.0821 169.168 90.0661 169.368 90.0341 169.576C90.0181 169.768 89.9861 169.984 89.9381 170.224H80.4821V168.064H88.5701L87.5861 168.928C87.5541 168.224 87.4181 167.632 87.1781 167.152C86.9381 166.672 86.5941 166.304 86.1461 166.048C85.7141 165.792 85.1781 165.664 84.5381 165.664C83.8661 165.664 83.2821 165.808 82.7861 166.096C82.2901 166.384 81.9061 166.792 81.6341 167.32C81.3621 167.832 81.2261 168.448 81.2261 169.168C81.2261 169.888 81.3701 170.52 81.6581 171.064C81.9461 171.608 82.3541 172.032 82.8821 172.336C83.4101 172.624 84.0181 172.768 84.7061 172.768C85.2981 172.768 85.8421 172.664 86.3381 172.456C86.8501 172.248 87.2821 171.944 87.6341 171.544L89.3141 173.248C88.7541 173.904 88.0741 174.4 87.2741 174.736C86.4741 175.072 85.6261 175.24 84.7301 175.24ZM97.5024 175.24C96.3664 175.24 95.3344 174.976 94.4064 174.448C93.4944 173.92 92.7744 173.2 92.2464 172.288C91.7184 171.376 91.4544 170.36 91.4544 169.24C91.4544 168.104 91.7184 167.088 92.2464 166.192C92.7744 165.28 93.4944 164.56 94.4064 164.032C95.3344 163.504 96.3664 163.24 97.5024 163.24C98.3984 163.24 99.2304 163.416 99.9984 163.768C100.782 164.104 101.446 164.592 101.99 165.232L100.262 166.984C99.9264 166.584 99.5184 166.288 99.0384 166.096C98.5744 165.888 98.0624 165.784 97.5024 165.784C96.8464 165.784 96.2624 165.936 95.7504 166.24C95.2544 166.528 94.8624 166.928 94.5744 167.44C94.3024 167.952 94.1664 168.552 94.1664 169.24C94.1664 169.912 94.3024 170.512 94.5744 171.04C94.8624 171.552 95.2544 171.96 95.7504 172.264C96.2624 172.552 96.8464 172.696 97.5024 172.696C98.0624 172.696 98.5744 172.6 99.0384 172.408C99.5184 172.2 99.9264 171.896 100.262 171.496L101.99 173.248C101.446 173.888 100.782 174.384 99.9984 174.736C99.2304 175.072 98.3984 175.24 97.5024 175.24ZM111.214 175L106.342 169.12L111.19 163.48H114.334L108.766 169.816L108.886 168.304L114.574 175H111.214ZM103.894 175V157.72H106.534V175H103.894Z" fill="white"/>
<path d="M161.686 324.91L174.182 304.533L178.852 307.396L166.356 327.774L161.686 324.91ZM175.229 333.215L182.675 321.073C183.508 319.715 183.725 318.407 183.327 317.151C182.947 315.866 182.134 314.842 180.889 314.078C180.04 313.557 179.171 313.258 178.284 313.182C177.425 313.122 176.597 313.296 175.802 313.704C175.024 314.084 174.357 314.727 173.802 315.632L172.601 313.494C173.556 311.937 174.72 310.801 176.093 310.086C177.467 309.37 178.924 309.057 180.467 309.146C182.026 309.206 183.528 309.679 184.971 310.564C186.415 311.449 187.526 312.559 188.304 313.893C189.083 315.228 189.464 316.669 189.45 318.218C189.435 319.766 188.941 321.333 187.969 322.918L179.899 336.079L175.229 333.215ZM188.772 341.52L196.217 329.378C197.05 328.019 197.268 326.712 196.87 325.455C196.49 324.17 195.677 323.146 194.431 322.383C193.611 321.879 192.756 321.589 191.869 321.512C190.981 321.435 190.14 321.601 189.345 322.009C188.567 322.388 187.9 323.031 187.344 323.937L185.337 321.304C186.433 319.834 187.71 318.767 189.169 318.104C190.627 317.44 192.142 317.162 193.712 317.268C195.328 317.363 196.858 317.854 198.302 318.739C199.773 319.641 200.913 320.768 201.719 322.12C202.526 323.471 202.936 324.93 202.95 326.496C202.963 328.062 202.484 329.638 201.512 331.223L193.442 344.383L188.772 341.52ZM204.703 351.581L208.626 325.654L213.763 328.804L210.439 347.562L208.953 346.651L224.504 335.391L229.683 338.567L207.59 353.351L204.703 351.581ZM193.556 356.137L207.873 346.982L207.59 353.351L198.735 359.313L193.556 356.137Z" fill="white"/>
<path d="M63.66 98.5712C60.9944 98.5712 58.5763 97.9429 56.4058 96.6862C54.2352 95.3915 52.5026 93.6589 51.2079 91.4883C49.9512 89.3178 49.3229 86.8997 49.3229 84.2341C49.3229 81.5685 49.9512 79.1694 51.2079 77.037C52.5026 74.9045 54.2352 73.2099 56.4058 71.9533C58.5763 70.6586 60.9944 70.0112 63.66 70.0112C66.3637 70.0112 68.8008 70.6395 70.9714 71.8962C73.1419 73.1528 74.8555 74.8664 76.1122 77.037C77.4069 79.1694 78.0543 81.5685 78.0543 84.2341C78.0543 86.8997 77.4069 89.3178 76.1122 91.4883C74.8555 93.6589 73.1419 95.3915 70.9714 96.6862C68.8008 97.9429 66.3637 98.5712 63.66 98.5712ZM63.66 92.5165C65.2213 92.5165 66.5922 92.1738 67.7727 91.4883C68.9912 90.7648 69.9242 89.7747 70.5715 88.5181C71.257 87.2614 71.5997 85.8334 71.5997 84.2341C71.5997 82.6347 71.257 81.2258 70.5715 80.0072C69.8861 78.7886 68.9531 77.8366 67.7727 77.1512C66.5922 76.4277 65.2213 76.0659 63.66 76.0659C62.1368 76.0659 60.7659 76.4277 59.5474 77.1512C58.3669 77.8366 57.4339 78.7886 56.7485 80.0072C56.1011 81.2258 55.7775 82.6347 55.7775 84.2341C55.7775 85.8334 56.1011 87.2614 56.7485 88.5181C57.4339 89.7747 58.3669 90.7648 59.5474 91.4883C60.7659 92.1738 62.1368 92.5165 63.66 92.5165ZM94.532 98.5712C92.2092 98.5712 90.1338 98.0571 88.306 97.029C86.5162 96.0008 85.1072 94.5918 84.0791 92.8021C83.089 90.9742 82.594 88.8798 82.594 86.5189V70.5824H88.8772V86.2333C88.8772 87.5661 89.0866 88.7085 89.5055 89.6605C89.9624 90.5744 90.6098 91.2789 91.4476 91.7739C92.3234 92.269 93.3516 92.5165 94.532 92.5165C96.3599 92.5165 97.7498 91.9834 98.7018 90.9171C99.6919 89.8128 100.187 88.2515 100.187 86.2333V70.5824H106.47V86.5189C106.47 88.9179 105.956 91.0314 104.928 92.8592C103.938 94.649 102.548 96.0579 100.758 97.0861C98.9684 98.0762 96.893 98.5712 94.532 98.5712ZM116.957 98V59.1584H123.241V98H116.957ZM110.389 76.2944V70.5824H129.809V76.2944H110.389Z" fill="white"/>
<path d="M354.668 280V257.92H359.728V280H354.668ZM369.342 280V266.844C369.342 265.372 368.882 264.237 367.962 263.44C367.042 262.612 365.907 262.198 364.558 262.198C363.638 262.198 362.81 262.382 362.074 262.75C361.368 263.118 360.801 263.655 360.372 264.36C359.942 265.035 359.728 265.863 359.728 266.844L357.75 265.74C357.75 264.053 358.118 262.597 358.854 261.37C359.59 260.143 360.586 259.193 361.844 258.518C363.101 257.813 364.512 257.46 366.076 257.46C367.64 257.46 369.05 257.797 370.308 258.472C371.565 259.147 372.562 260.097 373.298 261.324C374.034 262.551 374.402 264.023 374.402 265.74V280H369.342ZM384.016 280V266.844C384.016 265.372 383.556 264.237 382.636 263.44C381.716 262.612 380.581 262.198 379.232 262.198C378.342 262.198 377.53 262.382 376.794 262.75C376.058 263.118 375.475 263.655 375.046 264.36C374.616 265.035 374.402 265.863 374.402 266.844L371.55 265.74C371.703 264.053 372.194 262.597 373.022 261.37C373.85 260.143 374.908 259.193 376.196 258.518C377.514 257.813 378.956 257.46 380.52 257.46C382.114 257.46 383.556 257.797 384.844 258.472C386.132 259.147 387.159 260.097 387.926 261.324C388.692 262.551 389.076 264.023 389.076 265.74V280H384.016ZM404.547 280.46C402.339 280.46 400.345 279.969 398.567 278.988C396.819 277.976 395.423 276.596 394.381 274.848C393.369 273.1 392.863 271.137 392.863 268.96C392.863 266.783 393.369 264.835 394.381 263.118C395.393 261.37 396.757 259.99 398.475 258.978C400.223 257.966 402.155 257.46 404.271 257.46C406.325 257.46 408.135 257.935 409.699 258.886C411.293 259.837 412.535 261.14 413.425 262.796C414.345 264.452 414.805 266.338 414.805 268.454C414.805 268.822 414.774 269.205 414.713 269.604C414.682 269.972 414.621 270.386 414.529 270.846H396.405V266.706H411.907L410.021 268.362C409.959 267.013 409.699 265.878 409.239 264.958C408.779 264.038 408.119 263.333 407.261 262.842C406.433 262.351 405.405 262.106 404.179 262.106C402.891 262.106 401.771 262.382 400.821 262.934C399.87 263.486 399.134 264.268 398.613 265.28C398.091 266.261 397.831 267.442 397.831 268.822C397.831 270.202 398.107 271.413 398.659 272.456C399.211 273.499 399.993 274.311 401.005 274.894C402.017 275.446 403.182 275.722 404.501 275.722C405.635 275.722 406.678 275.523 407.629 275.124C408.61 274.725 409.438 274.143 410.113 273.376L413.333 276.642C412.259 277.899 410.956 278.85 409.423 279.494C407.889 280.138 406.264 280.46 404.547 280.46Z" fill="white"/>
<path d="M170.132 200V188.48H172.772V200H170.132ZM177.788 200V193.136C177.788 192.368 177.548 191.776 177.068 191.36C176.588 190.928 175.996 190.712 175.292 190.712C174.812 190.712 174.38 190.808 173.996 191C173.628 191.192 173.332 191.472 173.108 191.84C172.884 192.192 172.772 192.624 172.772 193.136L171.74 192.56C171.74 191.68 171.932 190.92 172.316 190.28C172.7 189.64 173.22 189.144 173.876 188.792C174.532 188.424 175.268 188.24 176.084 188.24C176.9 188.24 177.636 188.416 178.292 188.768C178.948 189.12 179.468 189.616 179.852 190.256C180.236 190.896 180.428 191.664 180.428 192.56V200H177.788ZM185.444 200V193.136C185.444 192.368 185.204 191.776 184.724 191.36C184.244 190.928 183.652 190.712 182.948 190.712C182.484 190.712 182.06 190.808 181.676 191C181.292 191.192 180.988 191.472 180.764 191.84C180.54 192.192 180.428 192.624 180.428 193.136L178.94 192.56C179.02 191.68 179.276 190.92 179.708 190.28C180.14 189.64 180.692 189.144 181.364 188.792C182.052 188.424 182.804 188.24 183.62 188.24C184.452 188.24 185.204 188.416 185.876 188.768C186.548 189.12 187.084 189.616 187.484 190.256C187.884 190.896 188.084 191.664 188.084 192.56V200H185.444ZM196.156 200.24C195.004 200.24 193.964 199.984 193.036 199.472C192.124 198.944 191.396 198.224 190.852 197.312C190.324 196.4 190.06 195.376 190.06 194.24C190.06 193.104 190.324 192.088 190.852 191.192C191.38 190.28 192.092 189.56 192.988 189.032C193.9 188.504 194.908 188.24 196.012 188.24C197.084 188.24 198.028 188.488 198.844 188.984C199.676 189.48 200.324 190.16 200.788 191.024C201.268 191.888 201.508 192.872 201.508 193.976C201.508 194.168 201.492 194.368 201.46 194.576C201.444 194.768 201.412 194.984 201.364 195.224H191.908V193.064H199.996L199.012 193.928C198.98 193.224 198.844 192.632 198.604 192.152C198.364 191.672 198.02 191.304 197.572 191.048C197.14 190.792 196.604 190.664 195.964 190.664C195.292 190.664 194.708 190.808 194.212 191.096C193.716 191.384 193.332 191.792 193.06 192.32C192.788 192.832 192.652 193.448 192.652 194.168C192.652 194.888 192.796 195.52 193.084 196.064C193.372 196.608 193.78 197.032 194.308 197.336C194.836 197.624 195.444 197.768 196.132 197.768C196.724 197.768 197.268 197.664 197.764 197.456C198.276 197.248 198.708 196.944 199.06 196.544L200.74 198.248C200.18 198.904 199.5 199.4 198.7 199.736C197.9 200.072 197.052 200.24 196.156 200.24ZM207.392 200.24C206.752 200.24 206.136 200.16 205.544 200C204.952 199.824 204.408 199.584 203.912 199.28C203.416 198.96 202.984 198.576 202.616 198.128L204.296 196.448C204.696 196.912 205.152 197.264 205.664 197.504C206.192 197.728 206.784 197.84 207.44 197.84C208.032 197.84 208.48 197.752 208.784 197.576C209.088 197.4 209.24 197.144 209.24 196.808C209.24 196.456 209.096 196.184 208.808 195.992C208.52 195.8 208.144 195.64 207.68 195.512C207.232 195.368 206.752 195.224 206.24 195.08C205.744 194.936 205.264 194.744 204.8 194.504C204.352 194.248 203.984 193.904 203.696 193.472C203.408 193.04 203.264 192.48 203.264 191.792C203.264 191.056 203.432 190.424 203.768 189.896C204.12 189.368 204.608 188.96 205.232 188.672C205.872 188.384 206.632 188.24 207.512 188.24C208.44 188.24 209.256 188.408 209.96 188.744C210.68 189.064 211.28 189.552 211.76 190.208L210.08 191.888C209.744 191.472 209.36 191.16 208.928 190.952C208.496 190.744 208 190.64 207.44 190.64C206.912 190.64 206.504 190.72 206.216 190.88C205.928 191.04 205.784 191.272 205.784 191.576C205.784 191.896 205.928 192.144 206.216 192.32C206.504 192.496 206.872 192.648 207.32 192.776C207.784 192.904 208.264 193.048 208.76 193.208C209.272 193.352 209.752 193.56 210.2 193.832C210.664 194.088 211.04 194.44 211.328 194.888C211.616 195.32 211.76 195.888 211.76 196.592C211.76 197.712 211.368 198.6 210.584 199.256C209.8 199.912 208.736 200.24 207.392 200.24ZM217.705 200.24C217.065 200.24 216.449 200.16 215.857 200C215.265 199.824 214.721 199.584 214.225 199.28C213.729 198.96 213.297 198.576 212.929 198.128L214.609 196.448C215.009 196.912 215.465 197.264 215.977 197.504C216.505 197.728 217.097 197.84 217.753 197.84C218.345 197.84 218.793 197.752 219.097 197.576C219.401 197.4 219.553 197.144 219.553 196.808C219.553 196.456 219.409 196.184 219.121 195.992C218.833 195.8 218.457 195.64 217.993 195.512C217.545 195.368 217.065 195.224 216.553 195.08C216.057 194.936 215.577 194.744 215.113 194.504C214.665 194.248 214.297 193.904 214.009 193.472C213.721 193.04 213.577 192.48 213.577 191.792C213.577 191.056 213.745 190.424 214.081 189.896C214.433 189.368 214.921 188.96 215.545 188.672C216.185 188.384 216.945 188.24 217.825 188.24C218.753 188.24 219.569 188.408 220.273 188.744C220.993 189.064 221.593 189.552 222.073 190.208L220.393 191.888C220.057 191.472 219.673 191.16 219.241 190.952C218.809 190.744 218.313 190.64 217.753 190.64C217.225 190.64 216.817 190.72 216.529 190.88C216.241 191.04 216.097 191.272 216.097 191.576C216.097 191.896 216.241 192.144 216.529 192.32C216.817 192.496 217.185 192.648 217.633 192.776C218.097 192.904 218.577 193.048 219.073 193.208C219.585 193.352 220.065 193.56 220.513 193.832C220.977 194.088 221.353 194.44 221.641 194.888C221.929 195.32 222.073 195.888 222.073 196.592C222.073 197.712 221.681 198.6 220.897 199.256C220.113 199.912 219.049 200.24 217.705 200.24ZM229.073 200.24C228.033 200.24 227.089 199.976 226.241 199.448C225.409 198.92 224.745 198.208 224.249 197.312C223.769 196.4 223.529 195.384 223.529 194.264C223.529 193.128 223.769 192.112 224.249 191.216C224.745 190.304 225.409 189.584 226.241 189.056C227.089 188.512 228.033 188.24 229.073 188.24C229.953 188.24 230.729 188.432 231.401 188.816C232.089 189.184 232.633 189.696 233.033 190.352C233.433 191.008 233.633 191.752 233.633 192.584V195.896C233.633 196.728 233.433 197.472 233.033 198.128C232.649 198.784 232.113 199.304 231.425 199.688C230.737 200.056 229.953 200.24 229.073 200.24ZM229.505 197.744C230.481 197.744 231.265 197.416 231.857 196.76C232.465 196.104 232.769 195.264 232.769 194.24C232.769 193.552 232.633 192.944 232.361 192.416C232.089 191.888 231.705 191.48 231.209 191.192C230.729 190.888 230.161 190.736 229.505 190.736C228.865 190.736 228.297 190.888 227.801 191.192C227.321 191.48 226.937 191.888 226.649 192.416C226.377 192.944 226.241 193.552 226.241 194.24C226.241 194.928 226.377 195.536 226.649 196.064C226.937 196.592 227.321 197.008 227.801 197.312C228.297 197.6 228.865 197.744 229.505 197.744ZM232.601 200V196.904L233.057 194.096L232.601 191.312V188.48H235.241V200H232.601ZM242.971 205.04C241.755 205.04 240.691 204.816 239.779 204.368C238.867 203.936 238.131 203.32 237.571 202.52L239.299 200.792C239.763 201.368 240.291 201.8 240.883 202.088C241.475 202.376 242.187 202.52 243.019 202.52C244.059 202.52 244.883 202.248 245.491 201.704C246.099 201.176 246.403 200.448 246.403 199.52V196.688L246.859 194.144L246.403 191.576V188.48H249.043V199.52C249.043 200.624 248.787 201.584 248.275 202.4C247.763 203.232 247.051 203.88 246.139 204.344C245.227 204.808 244.171 205.04 242.971 205.04ZM242.851 199.76C241.827 199.76 240.899 199.512 240.067 199.016C239.251 198.504 238.603 197.808 238.123 196.928C237.659 196.048 237.427 195.064 237.427 193.976C237.427 192.888 237.659 191.912 238.123 191.048C238.603 190.184 239.251 189.504 240.067 189.008C240.899 188.496 241.827 188.24 242.851 188.24C243.763 188.24 244.563 188.424 245.251 188.792C245.939 189.16 246.475 189.672 246.859 190.328C247.243 190.968 247.435 191.72 247.435 192.584V195.416C247.435 196.264 247.235 197.016 246.835 197.672C246.451 198.328 245.915 198.84 245.227 199.208C244.539 199.576 243.747 199.76 242.851 199.76ZM243.379 197.264C244.019 197.264 244.579 197.128 245.059 196.856C245.539 196.584 245.907 196.208 246.163 195.728C246.435 195.232 246.571 194.656 246.571 194C246.571 193.344 246.435 192.776 246.163 192.296C245.907 191.8 245.539 191.416 245.059 191.144C244.579 190.872 244.019 190.736 243.379 190.736C242.739 190.736 242.171 190.872 241.675 191.144C241.195 191.416 240.819 191.8 240.547 192.296C240.275 192.776 240.139 193.344 240.139 194C240.139 194.64 240.275 195.208 240.547 195.704C240.819 196.2 241.195 196.584 241.675 196.856C242.171 197.128 242.739 197.264 243.379 197.264ZM257.328 200.24C256.176 200.24 255.136 199.984 254.208 199.472C253.296 198.944 252.568 198.224 252.024 197.312C251.496 196.4 251.232 195.376 251.232 194.24C251.232 193.104 251.496 192.088 252.024 191.192C252.552 190.28 253.264 189.56 254.16 189.032C255.072 188.504 256.08 188.24 257.184 188.24C258.256 188.24 259.2 188.488 260.016 188.984C260.848 189.48 261.496 190.16 261.96 191.024C262.44 191.888 262.68 192.872 262.68 193.976C262.68 194.168 262.664 194.368 262.632 194.576C262.616 194.768 262.584 194.984 262.536 195.224H253.08V193.064H261.168L260.184 193.928C260.152 193.224 260.016 192.632 259.776 192.152C259.536 191.672 259.192 191.304 258.744 191.048C258.312 190.792 257.776 190.664 257.136 190.664C256.464 190.664 255.88 190.808 255.384 191.096C254.888 191.384 254.504 191.792 254.232 192.32C253.96 192.832 253.824 193.448 253.824 194.168C253.824 194.888 253.968 195.52 254.256 196.064C254.544 196.608 254.952 197.032 255.48 197.336C256.008 197.624 256.616 197.768 257.304 197.768C257.896 197.768 258.44 197.664 258.936 197.456C259.448 197.248 259.88 196.944 260.232 196.544L261.912 198.248C261.352 198.904 260.672 199.4 259.872 199.736C259.072 200.072 258.224 200.24 257.328 200.24Z" fill="white"/>
<path d="M937 227.128H912.055C910.637 227.128 909.382 226.818 908.289 226.197C907.166 225.547 906.28 224.661 905.63 223.539C904.98 222.416 904.655 221.102 904.655 219.595C904.655 218.473 904.847 217.498 905.231 216.671C905.586 215.815 906.103 215.017 906.782 214.279L909.972 217.469C909.736 217.764 909.559 218.089 909.441 218.443C909.293 218.768 909.219 219.152 909.219 219.595C909.219 220.452 909.47 221.117 909.972 221.589C910.474 222.032 911.154 222.254 912.01 222.254H937V227.128ZM920.163 232.223H915.732V211.487H920.163V232.223ZM937 214.279H915.732V209.405H937V214.279ZM913.871 211.842C913.871 212.669 913.591 213.363 913.03 213.924C912.468 214.456 911.774 214.722 910.947 214.722C910.12 214.722 909.426 214.456 908.865 213.924C908.303 213.363 908.023 212.669 908.023 211.842C908.023 210.985 908.303 210.291 908.865 209.759C909.426 209.227 910.12 208.962 910.947 208.962C911.774 208.962 912.468 209.227 913.03 209.759C913.591 210.291 913.871 210.985 913.871 211.842ZM937 189.384H924.727C923.309 189.384 922.142 189.841 921.226 190.757C920.311 191.643 919.853 192.795 919.853 194.213C919.853 195.158 920.06 196 920.473 196.739C920.887 197.477 921.463 198.053 922.201 198.467C922.94 198.88 923.782 199.087 924.727 199.087L923.663 200.992C922.039 200.992 920.606 200.638 919.366 199.929C918.095 199.22 917.106 198.245 916.397 197.004C915.658 195.734 915.289 194.316 915.289 192.751C915.289 191.156 915.703 189.738 916.53 188.497C917.327 187.257 918.376 186.282 919.676 185.573C920.946 184.864 922.275 184.51 923.663 184.51H937V189.384ZM937 203.961H915.732V199.087H937V203.961ZM937.443 170.651C937.443 172.571 936.956 174.314 935.981 175.879C935.006 177.415 933.692 178.641 932.038 179.557C930.354 180.443 928.478 180.886 926.41 180.886C924.313 180.886 922.438 180.443 920.783 179.557C919.1 178.641 917.77 177.415 916.796 175.879C915.791 174.314 915.289 172.571 915.289 170.651C915.289 169.026 915.644 167.594 916.353 166.353C917.032 165.083 917.977 164.079 919.188 163.34C920.399 162.602 921.773 162.233 923.309 162.233H929.423C930.959 162.233 932.333 162.602 933.544 163.34C934.755 164.049 935.715 165.039 936.424 166.309C937.103 167.579 937.443 169.026 937.443 170.651ZM932.835 169.854C932.835 168.642 932.569 167.594 932.038 166.708C931.476 165.792 930.708 165.083 929.734 164.581C928.759 164.079 927.636 163.828 926.366 163.828C925.096 163.828 923.974 164.079 922.999 164.581C922.024 165.083 921.271 165.792 920.739 166.708C920.178 167.594 919.897 168.642 919.897 169.854C919.897 171.035 920.178 172.084 920.739 172.999C921.271 173.886 922.024 174.594 922.999 175.126C923.974 175.628 925.096 175.879 926.366 175.879C927.636 175.879 928.759 175.628 929.734 175.126C930.708 174.594 931.476 173.886 932.038 172.999C932.569 172.084 932.835 171.035 932.835 169.854ZM937 159.264V164.138H931.284L926.1 163.296L920.961 164.138H905.098V159.264H937ZM937 153.811H915.732V148.937H937V153.811ZM911.833 151.374C911.833 152.201 911.553 152.895 910.991 153.456C910.43 153.988 909.736 154.254 908.909 154.254C908.082 154.254 907.388 153.988 906.826 153.456C906.265 152.895 905.985 152.201 905.985 151.374C905.985 150.517 906.265 149.823 906.826 149.291C907.388 148.76 908.082 148.494 908.909 148.494C909.736 148.494 910.43 148.76 910.991 149.291C911.553 149.823 911.833 150.517 911.833 151.374ZM937 128.893H924.727C923.309 128.893 922.142 129.351 921.226 130.267C920.311 131.153 919.853 132.305 919.853 133.723C919.853 134.668 920.06 135.51 920.473 136.248C920.887 136.987 921.463 137.563 922.201 137.976C922.94 138.39 923.782 138.597 924.727 138.597L923.663 140.502C922.039 140.502 920.606 140.147 919.366 139.438C918.095 138.729 917.106 137.755 916.397 136.514C915.658 135.244 915.289 133.826 915.289 132.261C915.289 130.665 915.703 129.248 916.53 128.007C917.327 126.766 918.376 125.792 919.676 125.083C920.946 124.374 922.275 124.019 923.663 124.019L937 124.019V128.893ZM937 143.47H915.732V138.597H937V143.47ZM946.305 110.205C946.305 112.45 945.891 114.414 945.064 116.098C944.266 117.782 943.129 119.14 941.652 120.174L938.462 116.984C939.526 116.127 940.323 115.153 940.855 114.06C941.386 112.967 941.652 111.652 941.652 110.116C941.652 108.196 941.15 106.675 940.146 105.553C939.171 104.43 937.827 103.869 936.114 103.869H930.886L926.189 103.027L921.448 103.869H915.732V98.9951H936.114C938.152 98.9951 939.924 99.4678 941.431 100.413C942.967 101.358 944.163 102.673 945.02 104.356C945.876 106.04 946.305 107.99 946.305 110.205ZM936.557 110.427C936.557 112.317 936.099 114.03 935.183 115.566C934.238 117.073 932.953 118.269 931.329 119.155C929.704 120.012 927.887 120.44 925.879 120.44C923.87 120.44 922.068 120.012 920.473 119.155C918.878 118.269 917.623 117.073 916.707 115.566C915.762 114.03 915.289 112.317 915.289 110.427C915.289 108.743 915.629 107.266 916.308 105.996C916.988 104.726 917.933 103.736 919.144 103.027C920.326 102.318 921.714 101.964 923.309 101.964H928.537C930.103 101.964 931.491 102.333 932.702 103.071C933.913 103.78 934.858 104.77 935.538 106.04C936.217 107.31 936.557 108.772 936.557 110.427ZM931.949 109.452C931.949 108.27 931.698 107.236 931.196 106.35C930.694 105.464 929.999 104.785 929.113 104.312C928.198 103.81 927.134 103.559 925.923 103.559C924.712 103.559 923.663 103.81 922.777 104.312C921.862 104.785 921.153 105.464 920.65 106.35C920.148 107.236 919.897 108.27 919.897 109.452C919.897 110.633 920.148 111.682 920.65 112.598C921.153 113.484 921.862 114.178 922.777 114.68C923.663 115.182 924.712 115.433 925.923 115.433C927.105 115.433 928.153 115.182 929.069 114.68C929.985 114.178 930.694 113.484 931.196 112.598C931.698 111.682 931.949 110.633 931.949 109.452ZM937.443 86.6246C937.443 87.8062 937.295 88.9434 937 90.0363C936.675 91.1293 936.232 92.1336 935.671 93.0493C935.08 93.965 934.371 94.7625 933.544 95.4419L930.442 92.3403C931.299 91.6019 931.949 90.76 932.392 89.8148C932.806 88.84 933.012 87.7471 933.012 86.536C933.012 85.4431 932.85 84.616 932.525 84.0548C932.2 83.4936 931.727 83.213 931.107 83.213C930.457 83.213 929.955 83.4788 929.601 84.0105C929.246 84.5422 928.951 85.2363 928.714 86.093C928.449 86.92 928.183 87.8062 927.917 88.7514C927.651 89.6671 927.297 90.5533 926.854 91.4099C926.381 92.237 925.746 92.9163 924.948 93.448C924.151 93.9797 923.117 94.2456 921.847 94.2456C920.488 94.2456 919.321 93.9354 918.346 93.3151C917.372 92.6653 916.618 91.7643 916.087 90.6123C915.555 89.4308 915.289 88.0277 915.289 86.4031C915.289 84.6899 915.599 83.1834 916.22 81.8837C916.81 80.5545 917.711 79.4468 918.922 78.5606L922.024 81.6622C921.256 82.2825 920.68 82.9914 920.296 83.789C919.912 84.5865 919.72 85.5022 919.72 86.536C919.72 87.5108 919.868 88.264 920.163 88.7957C920.458 89.3274 920.887 89.5933 921.448 89.5933C922.039 89.5933 922.497 89.3274 922.822 88.7957C923.146 88.264 923.427 87.5846 923.663 86.7576C923.9 85.901 924.166 85.0148 924.461 84.0991C924.727 83.1539 925.111 82.2677 925.613 81.4406C926.086 80.584 926.735 79.8899 927.562 79.3582C928.36 78.8265 929.409 78.5606 930.708 78.5606C932.776 78.5606 934.415 79.2843 935.626 80.7317C936.838 82.1791 937.443 84.1434 937.443 86.6246Z" fill="white"/>
<path d="M761.37 363.24C760.33 363.24 759.386 362.976 758.538 362.448C757.706 361.92 757.042 361.208 756.546 360.312C756.066 359.4 755.826 358.384 755.826 357.264C755.826 356.128 756.066 355.112 756.546 354.216C757.042 353.304 757.706 352.584 758.538 352.056C759.386 351.512 760.33 351.24 761.37 351.24C762.25 351.24 763.026 351.432 763.698 351.816C764.386 352.184 764.93 352.696 765.33 353.352C765.73 354.008 765.93 354.752 765.93 355.584V358.896C765.93 359.728 765.73 360.472 765.33 361.128C764.946 361.784 764.41 362.304 763.722 362.688C763.034 363.056 762.25 363.24 761.37 363.24ZM761.802 360.744C762.778 360.744 763.562 360.416 764.154 359.76C764.762 359.104 765.066 358.264 765.066 357.24C765.066 356.552 764.93 355.944 764.658 355.416C764.386 354.888 764.002 354.48 763.506 354.192C763.026 353.888 762.458 353.736 761.802 353.736C761.162 353.736 760.594 353.888 760.098 354.192C759.618 354.48 759.234 354.888 758.946 355.416C758.674 355.944 758.538 356.552 758.538 357.24C758.538 357.928 758.674 358.536 758.946 359.064C759.234 359.592 759.618 360.008 760.098 360.312C760.594 360.6 761.162 360.744 761.802 360.744ZM764.898 363V359.904L765.354 357.096L764.898 354.312V351.48H767.538V363H764.898ZM776.636 363.24C775.756 363.24 774.972 363.056 774.284 362.688C773.596 362.304 773.052 361.784 772.652 361.128C772.268 360.472 772.076 359.728 772.076 358.896V355.584C772.076 354.752 772.276 354.008 772.676 353.352C773.076 352.696 773.62 352.184 774.308 351.816C774.996 351.432 775.772 351.24 776.636 351.24C777.676 351.24 778.612 351.512 779.444 352.056C780.292 352.584 780.956 353.304 781.436 354.216C781.932 355.112 782.18 356.128 782.18 357.264C782.18 358.384 781.932 359.4 781.436 360.312C780.956 361.208 780.292 361.92 779.444 362.448C778.612 362.976 777.676 363.24 776.636 363.24ZM770.468 363V345.72H773.108V354.312L772.652 357.096L773.108 359.904V363H770.468ZM776.204 360.744C776.844 360.744 777.404 360.6 777.884 360.312C778.38 360.008 778.764 359.592 779.036 359.064C779.324 358.536 779.468 357.928 779.468 357.24C779.468 356.552 779.324 355.944 779.036 355.416C778.764 354.888 778.38 354.48 777.884 354.192C777.404 353.888 776.844 353.736 776.204 353.736C775.564 353.736 774.996 353.888 774.5 354.192C774.004 354.48 773.62 354.888 773.348 355.416C773.076 355.944 772.94 356.552 772.94 357.24C772.94 357.928 773.076 358.536 773.348 359.064C773.62 359.592 774.004 360.008 774.5 360.312C774.996 360.6 775.564 360.744 776.204 360.744ZM789.67 363.24C788.55 363.24 787.534 362.976 786.622 362.448C785.71 361.904 784.982 361.176 784.438 360.264C783.91 359.352 783.646 358.336 783.646 357.216C783.646 356.096 783.91 355.088 784.438 354.192C784.982 353.296 785.71 352.584 786.622 352.056C787.534 351.512 788.55 351.24 789.67 351.24C790.806 351.24 791.83 351.504 792.742 352.032C793.654 352.56 794.374 353.28 794.902 354.192C795.446 355.088 795.718 356.096 795.718 357.216C795.718 358.336 795.446 359.352 794.902 360.264C794.374 361.176 793.654 361.904 792.742 362.448C791.83 362.976 790.806 363.24 789.67 363.24ZM789.67 360.696C790.326 360.696 790.902 360.552 791.398 360.264C791.91 359.96 792.302 359.544 792.574 359.016C792.862 358.488 793.006 357.888 793.006 357.216C793.006 356.544 792.862 355.952 792.574 355.44C792.286 354.928 791.894 354.528 791.398 354.24C790.902 353.936 790.326 353.784 789.67 353.784C789.03 353.784 788.454 353.936 787.942 354.24C787.446 354.528 787.054 354.928 786.766 355.44C786.494 355.952 786.358 356.544 786.358 357.216C786.358 357.888 786.494 358.488 786.766 359.016C787.054 359.544 787.446 359.96 787.942 360.264C788.454 360.552 789.03 360.696 789.67 360.696ZM802.641 363.24C801.665 363.24 800.793 363.024 800.025 362.592C799.273 362.16 798.681 361.568 798.249 360.816C797.833 360.048 797.625 359.168 797.625 358.176V351.48H800.265V358.056C800.265 358.616 800.353 359.096 800.529 359.496C800.721 359.88 800.993 360.176 801.345 360.384C801.713 360.592 802.145 360.696 802.641 360.696C803.409 360.696 803.993 360.472 804.393 360.024C804.809 359.56 805.017 358.904 805.017 358.056V351.48H807.657V358.176C807.657 359.184 807.441 360.072 807.009 360.84C806.593 361.592 806.009 362.184 805.257 362.616C804.505 363.032 803.633 363.24 802.641 363.24ZM812.064 363V346.68H814.704V363H812.064ZM809.304 353.88V351.48H817.464V353.88H809.304Z" fill="white"/>
<path d="M613.394 257V245.48H616.034V257H613.394ZM616.034 250.592L615.122 250.136C615.122 248.68 615.442 247.504 616.082 246.608C616.738 245.696 617.722 245.24 619.034 245.24C619.61 245.24 620.13 245.344 620.594 245.552C621.058 245.76 621.49 246.096 621.89 246.56L620.162 248.336C619.954 248.112 619.722 247.952 619.466 247.856C619.21 247.76 618.914 247.712 618.578 247.712C617.842 247.712 617.234 247.944 616.754 248.408C616.274 248.872 616.034 249.6 616.034 250.592ZM628.096 257.24C626.976 257.24 625.96 256.976 625.048 256.448C624.136 255.904 623.408 255.176 622.864 254.264C622.336 253.352 622.072 252.336 622.072 251.216C622.072 250.096 622.336 249.088 622.864 248.192C623.408 247.296 624.136 246.584 625.048 246.056C625.96 245.512 626.976 245.24 628.096 245.24C629.232 245.24 630.256 245.504 631.168 246.032C632.08 246.56 632.8 247.28 633.328 248.192C633.872 249.088 634.144 250.096 634.144 251.216C634.144 252.336 633.872 253.352 633.328 254.264C632.8 255.176 632.08 255.904 631.168 256.448C630.256 256.976 629.232 257.24 628.096 257.24ZM628.096 254.696C628.752 254.696 629.328 254.552 629.824 254.264C630.336 253.96 630.728 253.544 631 253.016C631.288 252.488 631.432 251.888 631.432 251.216C631.432 250.544 631.288 249.952 631 249.44C630.712 248.928 630.32 248.528 629.824 248.24C629.328 247.936 628.752 247.784 628.096 247.784C627.456 247.784 626.88 247.936 626.368 248.24C625.872 248.528 625.48 248.928 625.192 249.44C624.92 249.952 624.784 250.544 624.784 251.216C624.784 251.888 624.92 252.488 625.192 253.016C625.48 253.544 625.872 253.96 626.368 254.264C626.88 254.552 627.456 254.696 628.096 254.696ZM641.619 257.24C640.499 257.24 639.483 256.976 638.571 256.448C637.659 255.904 636.931 255.176 636.387 254.264C635.859 253.352 635.595 252.336 635.595 251.216C635.595 250.096 635.859 249.088 636.387 248.192C636.931 247.296 637.659 246.584 638.571 246.056C639.483 245.512 640.499 245.24 641.619 245.24C642.755 245.24 643.779 245.504 644.691 246.032C645.603 246.56 646.323 247.28 646.851 248.192C647.395 249.088 647.667 250.096 647.667 251.216C647.667 252.336 647.395 253.352 646.851 254.264C646.323 255.176 645.603 255.904 644.691 256.448C643.779 256.976 642.755 257.24 641.619 257.24ZM641.619 254.696C642.275 254.696 642.851 254.552 643.347 254.264C643.859 253.96 644.251 253.544 644.523 253.016C644.811 252.488 644.955 251.888 644.955 251.216C644.955 250.544 644.811 249.952 644.523 249.44C644.235 248.928 643.843 248.528 643.347 248.24C642.851 247.936 642.275 247.784 641.619 247.784C640.979 247.784 640.403 247.936 639.891 248.24C639.395 248.528 639.003 248.928 638.715 249.44C638.443 249.952 638.307 250.544 638.307 251.216C638.307 251.888 638.443 252.488 638.715 253.016C639.003 253.544 639.395 253.96 639.891 254.264C640.403 254.552 640.979 254.696 641.619 254.696ZM649.862 257V245.48H652.502V257H649.862ZM657.518 257V250.136C657.518 249.368 657.278 248.776 656.798 248.36C656.318 247.928 655.726 247.712 655.022 247.712C654.542 247.712 654.11 247.808 653.726 248C653.358 248.192 653.062 248.472 652.838 248.84C652.614 249.192 652.502 249.624 652.502 250.136L651.47 249.56C651.47 248.68 651.662 247.92 652.046 247.28C652.43 246.64 652.95 246.144 653.606 245.792C654.262 245.424 654.998 245.24 655.814 245.24C656.63 245.24 657.366 245.416 658.022 245.768C658.678 246.12 659.198 246.616 659.582 247.256C659.966 247.896 660.158 248.664 660.158 249.56V257H657.518ZM665.174 257V250.136C665.174 249.368 664.934 248.776 664.454 248.36C663.974 247.928 663.382 247.712 662.678 247.712C662.214 247.712 661.79 247.808 661.406 248C661.022 248.192 660.718 248.472 660.494 248.84C660.27 249.192 660.158 249.624 660.158 250.136L658.67 249.56C658.75 248.68 659.006 247.92 659.438 247.28C659.87 246.64 660.422 246.144 661.094 245.792C661.782 245.424 662.534 245.24 663.35 245.24C664.182 245.24 664.934 245.416 665.606 245.768C666.278 246.12 666.814 246.616 667.214 247.256C667.614 247.896 667.814 248.664 667.814 249.56V257H665.174Z" fill="white"/>
<path d="M531.707 364.12L526.787 352.48H529.691L533.051 361.024H532.211L535.763 352.48H538.691L533.339 364.12H531.707ZM528.275 368.8L531.851 361.432L533.339 364.12L531.203 368.8H528.275ZM545.103 364.24C543.983 364.24 542.967 363.976 542.055 363.448C541.143 362.904 540.415 362.176 539.871 361.264C539.343 360.352 539.079 359.336 539.079 358.216C539.079 357.096 539.343 356.088 539.871 355.192C540.415 354.296 541.143 353.584 542.055 353.056C542.967 352.512 543.983 352.24 545.103 352.24C546.239 352.24 547.263 352.504 548.175 353.032C549.087 353.56 549.807 354.28 550.335 355.192C550.879 356.088 551.151 357.096 551.151 358.216C551.151 359.336 550.879 360.352 550.335 361.264C549.807 362.176 549.087 362.904 548.175 363.448C547.263 363.976 546.239 364.24 545.103 364.24ZM545.103 361.696C545.759 361.696 546.335 361.552 546.831 361.264C547.343 360.96 547.735 360.544 548.007 360.016C548.295 359.488 548.439 358.888 548.439 358.216C548.439 357.544 548.295 356.952 548.007 356.44C547.719 355.928 547.327 355.528 546.831 355.24C546.335 354.936 545.759 354.784 545.103 354.784C544.463 354.784 543.887 354.936 543.375 355.24C542.879 355.528 542.487 355.928 542.199 356.44C541.927 356.952 541.791 357.544 541.791 358.216C541.791 358.888 541.927 359.488 542.199 360.016C542.487 360.544 542.879 360.96 543.375 361.264C543.887 361.552 544.463 361.696 545.103 361.696ZM558.075 364.24C557.099 364.24 556.227 364.024 555.459 363.592C554.707 363.16 554.115 362.568 553.683 361.816C553.267 361.048 553.059 360.168 553.059 359.176V352.48H555.699V359.056C555.699 359.616 555.787 360.096 555.963 360.496C556.155 360.88 556.427 361.176 556.779 361.384C557.147 361.592 557.579 361.696 558.075 361.696C558.843 361.696 559.427 361.472 559.827 361.024C560.243 360.56 560.451 359.904 560.451 359.056V352.48H563.091V359.176C563.091 360.184 562.875 361.072 562.443 361.84C562.027 362.592 561.443 363.184 560.691 363.616C559.939 364.032 559.067 364.24 558.075 364.24ZM565.745 364V352.48H568.385V364H565.745ZM568.385 357.592L567.473 357.136C567.473 355.68 567.793 354.504 568.433 353.608C569.089 352.696 570.073 352.24 571.385 352.24C571.961 352.24 572.481 352.344 572.945 352.552C573.409 352.76 573.841 353.096 574.241 353.56L572.513 355.336C572.305 355.112 572.073 354.952 571.817 354.856C571.561 354.76 571.265 354.712 570.929 354.712C570.193 354.712 569.585 354.944 569.105 355.408C568.625 355.872 568.385 356.6 568.385 357.592Z" fill="white"/>
<path d="M812.257 163.24C811.217 163.24 810.273 162.976 809.425 162.448C808.593 161.92 807.929 161.208 807.433 160.312C806.953 159.4 806.713 158.384 806.713 157.264C806.713 156.128 806.953 155.112 807.433 154.216C807.929 153.304 808.593 152.584 809.425 152.056C810.273 151.512 811.217 151.24 812.257 151.24C813.137 151.24 813.913 151.432 814.585 151.816C815.273 152.184 815.817 152.696 816.217 153.352C816.617 154.008 816.817 154.752 816.817 155.584V158.896C816.817 159.728 816.617 160.472 816.217 161.128C815.833 161.784 815.297 162.304 814.609 162.688C813.921 163.056 813.137 163.24 812.257 163.24ZM812.689 160.744C813.665 160.744 814.449 160.416 815.041 159.76C815.649 159.104 815.953 158.264 815.953 157.24C815.953 156.552 815.817 155.944 815.545 155.416C815.273 154.888 814.889 154.48 814.393 154.192C813.913 153.888 813.345 153.736 812.689 153.736C812.049 153.736 811.481 153.888 810.985 154.192C810.505 154.48 810.121 154.888 809.833 155.416C809.561 155.944 809.425 156.552 809.425 157.24C809.425 157.928 809.561 158.536 809.833 159.064C810.121 159.592 810.505 160.008 810.985 160.312C811.481 160.6 812.049 160.744 812.689 160.744ZM815.785 163V159.904L816.241 157.096L815.785 154.312V151.48H818.425V163H815.785ZM829.251 163V156.352C829.251 155.584 829.003 154.952 828.507 154.456C828.027 153.96 827.403 153.712 826.635 153.712C826.123 153.712 825.667 153.824 825.267 154.048C824.867 154.272 824.555 154.584 824.331 154.984C824.107 155.384 823.995 155.84 823.995 156.352L822.963 155.776C822.963 154.896 823.155 154.12 823.539 153.448C823.923 152.76 824.451 152.224 825.123 151.84C825.811 151.44 826.579 151.24 827.427 151.24C828.291 151.24 829.059 151.464 829.731 151.912C830.403 152.344 830.931 152.912 831.315 153.616C831.699 154.304 831.891 155.024 831.891 155.776V163H829.251ZM821.355 163V151.48H823.995V163H821.355ZM839.397 163.24C838.357 163.24 837.413 162.976 836.565 162.448C835.733 161.92 835.069 161.208 834.573 160.312C834.093 159.4 833.853 158.384 833.853 157.264C833.853 156.128 834.093 155.112 834.573 154.216C835.069 153.304 835.733 152.584 836.565 152.056C837.413 151.512 838.357 151.24 839.397 151.24C840.277 151.24 841.053 151.432 841.725 151.816C842.413 152.184 842.957 152.696 843.357 153.352C843.757 154.008 843.957 154.752 843.957 155.584V158.896C843.957 159.728 843.757 160.472 843.357 161.128C842.973 161.784 842.437 162.304 841.749 162.688C841.061 163.056 840.277 163.24 839.397 163.24ZM839.829 160.744C840.485 160.744 841.053 160.6 841.533 160.312C842.029 160.008 842.413 159.592 842.685 159.064C842.957 158.536 843.093 157.928 843.093 157.24C843.093 156.552 842.957 155.944 842.685 155.416C842.413 154.888 842.029 154.48 841.533 154.192C841.053 153.888 840.485 153.736 839.829 153.736C839.189 153.736 838.621 153.888 838.125 154.192C837.645 154.48 837.261 154.888 836.973 155.416C836.701 155.944 836.565 156.552 836.565 157.24C836.565 157.928 836.701 158.536 836.973 159.064C837.261 159.592 837.645 160.008 838.125 160.312C838.621 160.6 839.189 160.744 839.829 160.744ZM845.565 163H842.925V159.904L843.381 157.096L842.925 154.312V145.72H845.565V163Z" fill="white"/>
<path d="M984 339C937 278.5 732.576 350.277 712.232 328.874M712.232 328.874C711.07 327.652 709.924 326.235 708.8 324.617C687.991 294.672 701.057 243.477 723.318 267.626C735.894 281.269 728.854 304.008 712.232 328.874ZM712.232 328.874C699.433 348.022 680.954 368.431 661.375 386.921M658.471 378.71C658.471 382.735 657.697 391.461 654.6 394.166C650.728 397.547 666.698 389.336 671.053 392.717" stroke="#34DB69" stroke-width="5" stroke-linecap="round"/>
</g>
<defs>
<clipPath id="clip0_341_2">
<rect width="980" height="400" fill="white"/>
</clipPath>
</defs>
</svg>
