<svg width="980" height="400" viewBox="0 0 980 400" fill="none" xmlns="http://www.w3.org/2000/svg">
<g clip-path="url(#clip0_341_2)">
<rect width="980" height="400" fill="#222222"/>
<path d="M0 204L-2.37587 7.27769C-2.44387 1.64771 2.1475 -2.9285 7.77722 -2.84189L186.919 -0.0858929C190.388 -0.0325241 193.581 1.81508 195.356 4.79586L311.092 199.117C312.895 202.145 316.159 204 319.683 204H671.458C674.905 204 678.11 202.224 679.938 199.3L801.586 4.66206C803.401 1.75891 806.574 -0.0142441 809.998 -0.0377111L974.431 -1.16487C979.981 -1.20291 984.5 3.28526 984.5 8.8349V393C984.5 398.523 980.023 403 974.5 403H6.67744C1.08579 403 -3.41936 398.415 -3.32103 392.824L0 204Z" fill="#101010"/>
<path d="M937 213.887H906.871V208.792H937V213.887ZM910.637 223.99H905.985V198.69H910.637V223.99ZM937.443 182.063C937.443 184.278 937.03 186.346 936.202 188.266C935.375 190.186 934.238 191.87 932.791 193.317C931.314 194.764 929.615 195.902 927.695 196.729C925.746 197.526 923.663 197.925 921.448 197.925C919.233 197.925 917.165 197.526 915.245 196.729C913.325 195.902 911.641 194.779 910.194 193.361C908.717 191.914 907.58 190.245 906.782 188.354C905.955 186.434 905.542 184.367 905.542 182.151C905.542 179.936 905.955 177.883 906.782 175.993C907.58 174.073 908.717 172.389 910.194 170.941C911.641 169.494 913.34 168.372 915.289 167.574C917.209 166.747 919.277 166.333 921.492 166.333C923.708 166.333 925.79 166.747 927.74 167.574C929.66 168.372 931.343 169.494 932.791 170.941C934.238 172.359 935.375 174.028 936.202 175.948C937.03 177.839 937.443 179.877 937.443 182.063ZM932.569 182.151C932.569 180.054 932.097 178.223 931.151 176.657C930.206 175.062 928.906 173.821 927.252 172.935C925.569 172.02 923.634 171.562 921.448 171.562C919.823 171.562 918.346 171.828 917.017 172.359C915.658 172.861 914.492 173.585 913.517 174.53C912.513 175.476 911.745 176.598 911.213 177.898C910.681 179.168 910.415 180.586 910.415 182.151C910.415 184.219 910.888 186.05 911.833 187.645C912.749 189.211 914.034 190.452 915.688 191.367C917.342 192.254 919.262 192.697 921.448 192.697C923.073 192.697 924.579 192.446 925.967 191.943C927.326 191.412 928.493 190.688 929.468 189.772C930.442 188.827 931.21 187.705 931.772 186.405C932.303 185.105 932.569 183.687 932.569 182.151ZM937 157.652H932.348V149.499C932.348 147.372 931.89 145.511 930.974 143.916C930.058 142.292 928.788 141.036 927.164 140.15C925.51 139.234 923.604 138.777 921.448 138.777C919.321 138.777 917.446 139.234 915.821 140.15C914.196 141.066 912.926 142.336 912.01 143.961C911.095 145.556 910.637 147.402 910.637 149.499V157.652H905.985V149.366C905.985 147.121 906.383 145.039 907.181 143.119C907.949 141.199 909.042 139.53 910.46 138.112C911.848 136.665 913.487 135.542 915.378 134.745C917.239 133.947 919.277 133.548 921.492 133.548C923.678 133.548 925.716 133.947 927.607 134.745C929.497 135.542 931.151 136.65 932.569 138.068C933.958 139.485 935.05 141.154 935.848 143.074C936.616 144.994 937 147.062 937 149.277V157.652ZM937 161.152H905.985V156.057H937V161.152ZM937.443 114.087C937.443 116.302 937.03 118.37 936.202 120.29C935.375 122.21 934.238 123.894 932.791 125.341C931.314 126.788 929.615 127.926 927.695 128.753C925.746 129.55 923.663 129.949 921.448 129.949C919.233 129.949 917.165 129.55 915.245 128.753C913.325 127.926 911.641 126.803 910.194 125.385C908.717 123.938 907.58 122.269 906.782 120.378C905.955 118.458 905.542 116.391 905.542 114.175C905.542 111.96 905.955 109.907 906.782 108.017C907.58 106.097 908.717 104.413 910.194 102.966C911.641 101.518 913.34 100.396 915.289 99.5982C917.209 98.7711 919.277 98.3575 921.492 98.3575C923.708 98.3575 925.79 98.7711 927.74 99.5982C929.66 100.396 931.343 101.518 932.791 102.966C934.238 104.383 935.375 106.052 936.202 107.972C937.03 109.863 937.443 111.901 937.443 114.087ZM932.569 114.175C932.569 112.078 932.097 110.247 931.151 108.681C930.206 107.086 928.906 105.846 927.252 104.959C925.569 104.044 923.634 103.586 921.448 103.586C919.823 103.586 918.346 103.852 917.017 104.383C915.658 104.886 914.492 105.609 913.517 106.554C912.513 107.5 911.745 108.622 911.213 109.922C910.681 111.192 910.415 112.61 910.415 114.175C910.415 116.243 910.888 118.074 911.833 119.67C912.749 121.235 914.034 122.476 915.688 123.391C917.342 124.278 919.262 124.721 921.448 124.721C923.073 124.721 924.579 124.47 925.967 123.967C927.326 123.436 928.493 122.712 929.468 121.796C930.442 120.851 931.21 119.729 931.772 118.429C932.303 117.129 932.569 115.711 932.569 114.175ZM926.721 92.7772L905.098 93.4418V88.3464L926.721 89.011V92.7772ZM937.443 90.9163C937.443 91.8615 937.133 92.6443 936.513 93.2646C935.863 93.8554 935.08 94.1507 934.164 94.1507C933.219 94.1507 932.436 93.8554 931.816 93.2646C931.196 92.6443 930.886 91.8615 930.886 90.9163C930.886 89.971 931.196 89.203 931.816 88.6123C932.436 87.992 933.219 87.6818 934.164 87.6818C935.08 87.6818 935.863 87.992 936.513 88.6123C937.133 89.203 937.443 89.971 937.443 90.9163Z" fill="white"/>
<path d="M984 339C937 278.5 732.576 350.277 712.232 328.874M712.232 328.874C711.07 327.652 709.924 326.235 708.8 324.617C687.991 294.672 701.057 243.477 723.318 267.626C735.894 281.269 728.854 304.008 712.232 328.874ZM712.232 328.874C699.433 348.022 680.954 368.431 661.375 386.921M658.471 378.71C658.471 382.735 657.697 391.461 654.6 394.166C650.728 397.547 666.698 389.336 671.053 392.717" stroke="#34DB69" stroke-width="5" stroke-linecap="round"/>
</g>
<defs>
<clipPath id="clip0_341_2">
<rect width="980" height="400" fill="white"/>
</clipPath>
</defs>
</svg>
