<svg width="438" height="300" viewBox="0 0 438 300" fill="none" xmlns="http://www.w3.org/2000/svg">
<rect width="438" height="300" fill="#F5F5F5"/>
<path d="M431.083 155.982C435.475 152.183 438.075 146.657 437.721 140.86C436.013 112.874 426.488 85.8593 410.142 62.9293C392.023 37.5114 366.425 18.3795 336.916 8.20002C307.407 -1.97944 275.458 -2.69931 245.52 6.14075C215.583 14.9808 189.149 32.9403 169.903 57.5164C150.657 82.0924 2.40594 118.816 1 150C-0.405936 181.184 145.104 205.273 162.06 231.481C179.016 257.689 203.727 277.955 232.747 289.453C256.484 298.858 282.136 302.014 307.274 298.757C316.575 297.552 322.134 288.245 319.886 279.139V279.139C317.638 270.033 308.425 264.607 299.088 265.503C280.874 267.252 262.419 264.675 245.258 257.875C222.809 248.981 203.695 233.304 190.578 213.031C177.461 192.757 170.996 168.896 172.083 144.774C173.171 120.651 181.757 97.4693 196.645 78.4582C211.533 59.4472 231.981 45.5544 255.139 38.7161C278.298 31.8777 303.013 32.4346 325.839 40.309C348.666 48.1835 368.468 62.9832 382.484 82.6455C392.392 96.5439 359.991 160.848 340.143 205.883C333.235 221.557 345.966 229.593 358.922 218.389L431.083 155.982Z" fill="#2C2E31"/>
<circle cx="269" cy="100" r="50" fill="#3A3E3C"/>
</svg>
