<svg width="356" height="400" viewBox="0 0 356 400" fill="none" xmlns="http://www.w3.org/2000/svg">
<path d="M265.492 0C272.119 0.00021363 277.492 5.37277 277.492 12V228C277.492 230.761 279.731 233 282.492 233H343.492C350.119 233 355.492 238.373 355.492 245V295.5C355.492 302.127 350.119 307.5 343.492 307.5H282.492C279.731 307.5 277.492 309.739 277.492 312.5V387.5C277.492 394.127 272.119 399.5 265.492 399.5H219.492C212.865 399.5 207.492 394.128 207.492 387.5V312.5C207.492 309.739 205.253 307.5 202.492 307.5H48.5359C44.6131 307.5 40.9364 305.583 38.6921 302.364V302.363L2.15601 249.962C-0.918785 245.552 -0.684785 239.634 2.72925 235.479L192.667 4.38086C194.946 1.60778 198.348 0.000126168 201.937 0H265.492ZM97.9441 230.5H212.992C215.753 230.5 217.992 228.261 217.992 225.5V82.6797L97.9441 230.5ZM329.492 221.172H295.891V198.805H300.931V215.652H309.908V200.196H314.756V215.652H324.452V198.564H329.492V221.172ZM329.492 170.588L315.871 179.58L329.492 189.164V195.355L312.255 183.097L295.891 194.78V188.252L308.37 179.465L295.891 170.924V164.731L312.013 175.95L329.492 164.156V170.588ZM306.356 136.385C308.468 136.385 310.308 136.88 311.876 137.872C313.444 138.832 314.66 140.16 315.524 141.856C316.388 143.52 316.82 145.409 316.82 147.521V154.48H329.492V160H295.891V147.521C295.891 145.409 296.324 143.52 297.188 141.856C298.052 140.161 299.268 138.832 300.836 137.872C302.404 136.88 304.244 136.385 306.356 136.385ZM306.356 141.904C305.204 141.904 304.212 142.161 303.38 142.673C302.516 143.185 301.86 143.888 301.412 144.784C300.932 145.648 300.692 146.657 300.692 147.809V154.48H312.02V147.809C312.02 146.657 311.795 145.648 311.347 144.784C310.867 143.888 310.211 143.185 309.38 142.673C308.516 142.161 307.508 141.904 306.356 141.904ZM329.492 131.406H295.891V109.039H300.931V125.887H309.908V110.431H314.756V125.887H324.452V108.799H329.492V131.406ZM329.492 84.6621L315.236 96.1504V97.5742H329.492V103.094H295.891V90.5186C295.891 88.4066 296.324 86.5502 297.188 84.9502C298.02 83.3504 299.171 82.1179 300.643 81.2539C302.083 80.3579 303.732 79.9102 305.588 79.9102C307.54 79.9102 309.236 80.358 310.676 81.2539C312.116 82.1179 313.236 83.3502 314.036 84.9502C314.704 86.2858 315.091 87.7999 315.201 89.4922L329.492 77.7021V84.6621ZM305.683 85.4307C304.276 85.4308 303.091 85.8944 302.132 86.8223C301.172 87.7502 300.692 89.0621 300.692 90.7578V97.5742H310.676V90.8066C310.676 89.1106 310.244 87.7981 309.38 86.8701C308.484 85.9102 307.251 85.4307 305.683 85.4307ZM300.931 61.2822H329.492V66.8027H300.931V77.7461H295.891V50.3389H300.931V61.2822Z" fill="#34DB69"/>
</svg>
